<?xml version="1.0" encoding="UTF-8" standalone="no"?>
<svg
   width="600mm"
   height="300mm"
   viewBox="0 0 599.99999 299.99999"
   version="1.1"
   id="svg1359"
   sodipodi:docname="ElectronicsBox.svg"
   inkscape:version="1.2.1 (9c6d41e4, 2022-07-14)"
   xmlns:inkscape="http://www.inkscape.org/namespaces/inkscape"
   xmlns:sodipodi="http://sodipodi.sourceforge.net/DTD/sodipodi-0.dtd"
   xmlns:xlink="http://www.w3.org/1999/xlink"
   xmlns="http://www.w3.org/2000/svg"
   xmlns:svg="http://www.w3.org/2000/svg"
   xmlns:rdf="http://www.w3.org/1999/02/22-rdf-syntax-ns#"
   xmlns:cc="http://creativecommons.org/ns#"
   xmlns:dc="http://purl.org/dc/elements/1.1/">
  <defs
     id="defs1363">
    <linearGradient
       id="linearGradient4900"
       inkscape:swatch="solid">
      <stop
         style="stop-color:#000000;stop-opacity:1;"
         offset="0"
         id="stop4898" />
    </linearGradient>
    <linearGradient
       id="linearGradient3898"
       inkscape:swatch="solid">
      <stop
         style="stop-color:#ff0000;stop-opacity:1;"
         offset="0"
         id="stop3896" />
    </linearGradient>
    <linearGradient
       id="linearGradient1924"
       inkscape:swatch="solid">
      <stop
         style="stop-color:#090000;stop-opacity:1;"
         offset="0"
         id="stop1922" />
    </linearGradient>
    <linearGradient
       id="linearGradient1918"
       inkscape:swatch="solid">
      <stop
         style="stop-color:#090000;stop-opacity:1;"
         offset="0"
         id="stop1916" />
    </linearGradient>
    <linearGradient
       id="linearGradient1912"
       inkscape:swatch="solid">
      <stop
         style="stop-color:#090000;stop-opacity:1;"
         offset="0"
         id="stop1910" />
    </linearGradient>
    <linearGradient
       id="linearGradient1906"
       inkscape:swatch="solid">
      <stop
         style="stop-color:#090000;stop-opacity:1;"
         offset="0"
         id="stop1904" />
    </linearGradient>
    <linearGradient
       id="linearGradient1900"
       inkscape:swatch="solid">
      <stop
         style="stop-color:#090000;stop-opacity:1;"
         offset="0"
         id="stop1898" />
    </linearGradient>
    <linearGradient
       id="linearGradient1894"
       inkscape:swatch="solid">
      <stop
         style="stop-color:#ff0000;stop-opacity:1;"
         offset="0"
         id="stop1892" />
    </linearGradient>
    <linearGradient
       id="linearGradient1888"
       inkscape:swatch="solid">
      <stop
         style="stop-color:#ff0000;stop-opacity:1;"
         offset="0"
         id="stop1886" />
    </linearGradient>
    <linearGradient
       inkscape:collect="always"
       xlink:href="#linearGradient3898"
       id="linearGradient3904"
       x1="412.89999"
       y1="681.09998"
       x2="633.29999"
       y2="681.09998"
       gradientUnits="userSpaceOnUse" />
    <linearGradient
       inkscape:collect="always"
       xlink:href="#linearGradient3898"
       id="linearGradient3910"
       x1="10.2"
       y1="168"
       x2="400.60001"
       y2="168"
       gradientUnits="userSpaceOnUse" />
    <linearGradient
       inkscape:collect="always"
       xlink:href="#linearGradient3898"
       id="linearGradient13402"
       gradientUnits="userSpaceOnUse"
       x1="10.2"
       y1="168"
       x2="400.60001"
       y2="168" />
    <linearGradient
       inkscape:collect="always"
       xlink:href="#linearGradient3898"
       id="linearGradient13404"
       gradientUnits="userSpaceOnUse"
       x1="10.2"
       y1="168"
       x2="400.60001"
       y2="168" />
    <linearGradient
       inkscape:collect="always"
       xlink:href="#linearGradient3898"
       id="linearGradient13406"
       gradientUnits="userSpaceOnUse"
       x1="10.2"
       y1="168"
       x2="400.60001"
       y2="168" />
    <linearGradient
       inkscape:collect="always"
       xlink:href="#linearGradient3898"
       id="linearGradient13408"
       gradientUnits="userSpaceOnUse"
       x1="10.2"
       y1="168"
       x2="400.60001"
       y2="168" />
    <linearGradient
       inkscape:collect="always"
       xlink:href="#linearGradient3898"
       id="linearGradient13410"
       gradientUnits="userSpaceOnUse"
       x1="10.2"
       y1="168"
       x2="400.60001"
       y2="168" />
    <linearGradient
       inkscape:collect="always"
       xlink:href="#linearGradient3898"
       id="linearGradient13412"
       gradientUnits="userSpaceOnUse"
       x1="10.2"
       y1="168"
       x2="400.60001"
       y2="168" />
    <linearGradient
       inkscape:collect="always"
       xlink:href="#linearGradient3898"
       id="linearGradient13414"
       gradientUnits="userSpaceOnUse"
       x1="412.89999"
       y1="681.09998"
       x2="633.29999"
       y2="681.09998" />
    <linearGradient
       inkscape:collect="always"
       xlink:href="#linearGradient3898"
       id="linearGradient13416"
       gradientUnits="userSpaceOnUse"
       x1="412.89999"
       y1="681.09998"
       x2="633.29999"
       y2="681.09998" />
    <linearGradient
       inkscape:collect="always"
       xlink:href="#linearGradient3898"
       id="linearGradient13418"
       gradientUnits="userSpaceOnUse"
       x1="412.89999"
       y1="681.09998"
       x2="633.29999"
       y2="681.09998" />
    <linearGradient
       inkscape:collect="always"
       xlink:href="#linearGradient3898"
       id="linearGradient13420"
       gradientUnits="userSpaceOnUse"
       x1="412.89999"
       y1="681.09998"
       x2="633.29999"
       y2="681.09998" />
  </defs>
  <sodipodi:namedview
     id="namedview1361"
     pagecolor="#ffffff"
     bordercolor="#000000"
     borderopacity="0.25"
     inkscape:showpageshadow="2"
     inkscape:pageopacity="0.0"
     inkscape:pagecheckerboard="0"
     inkscape:deskcolor="#d1d1d1"
     inkscape:document-units="mm"
     showgrid="false"
     inkscape:zoom="0.16355513"
     inkscape:cx="1439.8815"
     inkscape:cy="586.95806"
     inkscape:window-width="833"
     inkscape:window-height="456"
     inkscape:window-x="136"
     inkscape:window-y="161"
     inkscape:window-maximized="0"
     inkscape:current-layer="svg1359" />
  <!--
ElectronicsBox - Closed box with screw on top and mounting holes

Created with Boxes.py (https://festi.info/boxes.py)
Creation date: 2022-10-28 09:08:01
Command line (remove spaces between dashes): boxes ElectronicsBox - -FingerJoint_angle=90.0 - -FingerJoint_style=rectangular - -FingerJoint_surroundingspaces=2.0 - -FingerJoint_edge_width=1.0 - -FingerJoint_extra_length=0.0 - -FingerJoint_finger=2.0 - -FingerJoint_play=0.0 - -FingerJoint_space=2.0 - -FingerJoint_width=1.0 - -x=400 - -y=220 - -h=120 - -outside=0 - -outside=1 - -triangle=40 - -d1=2.0 - -d2=3.0 - -d3=3.0 - -outsidemounts=0 - -outsidemounts=1 - -holedist=7.0 - -thickness=5 - -format=svg - -tabs=0.0 - -debug=0 - -labels=0 - -labels=1 - -reference=100 - -inner_corners=loop - -burn=0.1
Url: http://www.festi.info/ElectronicsBox?FingerJoint_angle=90.0&FingerJoint_style=rectangular&FingerJoint_surroundingspaces=2.0&FingerJoint_edge_width=1.0&FingerJoint_extra_length=0.0&FingerJoint_finger=2.0&FingerJoint_play=0.0&FingerJoint_space=2.0&FingerJoint_width=1.0&x=400&y=220&h=120&outside=0&outside=1&triangle=40&d1=2.0&d2=3.0&d3=3.0&outsidemounts=0&outsidemounts=1&holedist=7.0&thickness=5&format=svg&tabs=0.0&debug=0&labels=0&labels=1&reference=100&inner_corners=loop&burn=0.1&render=1
SettingsUrl: http://www.festi.info/ElectronicsBox?FingerJoint_angle=90.0&FingerJoint_style=rectangular&FingerJoint_surroundingspaces=2.0&FingerJoint_edge_width=1.0&FingerJoint_extra_length=0.0&FingerJoint_finger=2.0&FingerJoint_play=0.0&FingerJoint_space=2.0&FingerJoint_width=1.0&x=400&y=220&h=120&outside=0&outside=1&triangle=40&d1=2.0&d2=3.0&d3=3.0&outsidemounts=0&outsidemounts=1&holedist=7.0&thickness=5&format=svg&tabs=0.0&debug=0&labels=0&labels=1&reference=100&inner_corners=loop&burn=0.1
-->
  <title
     id="title1231">ElectronicsBox</title>
  <metadata
     id="metadata1233">
    <rdf:RDF>
      <cc:Work>
        <dc:title>Box - ElectronicsBox</dc:title>
        <dc:date>2022-10-28 09:08:01</dc:date>
        <dc:source>http://www.festi.info/ElectronicsBox?FingerJoint_angle=90.0&amp;FingerJoint_style=rectangular&amp;FingerJoint_surroundingspaces=2.0&amp;FingerJoint_edge_width=1.0&amp;FingerJoint_extra_length=0.0&amp;FingerJoint_finger=2.0&amp;FingerJoint_play=0.0&amp;FingerJoint_space=2.0&amp;FingerJoint_width=1.0&amp;x=400&amp;y=220&amp;h=120&amp;outside=0&amp;outside=1&amp;triangle=40&amp;d1=2.0&amp;d2=3.0&amp;d3=3.0&amp;outsidemounts=0&amp;outsidemounts=1&amp;holedist=7.0&amp;thickness=5&amp;format=svg&amp;tabs=0.0&amp;debug=0&amp;labels=0&amp;labels=1&amp;reference=100&amp;inner_corners=loop&amp;burn=0.1&amp;render=1</dc:source>
        <dc:description>Closed box with screw on top and mounting holes

Created with Boxes.py (https://festi.info/boxes.py)
Command line: boxes ElectronicsBox --FingerJoint_angle=90.0 --FingerJoint_style=rectangular --FingerJoint_surroundingspaces=2.0 --FingerJoint_edge_width=1.0 --FingerJoint_extra_length=0.0 --FingerJoint_finger=2.0 --FingerJoint_play=0.0 --FingerJoint_space=2.0 --FingerJoint_width=1.0 --x=400 --y=220 --h=120 --outside=0 --outside=1 --triangle=40 --d1=2.0 --d2=3.0 --d3=3.0 --outsidemounts=0 --outsidemounts=1 --holedist=7.0 --thickness=5 --format=svg --tabs=0.0 --debug=0 --labels=0 --labels=1 --reference=100 --inner_corners=loop --burn=0.1
Url: http://www.festi.info/ElectronicsBox?FingerJoint_angle=90.0&amp;FingerJoint_style=rectangular&amp;FingerJoint_surroundingspaces=2.0&amp;FingerJoint_edge_width=1.0&amp;FingerJoint_extra_length=0.0&amp;FingerJoint_finger=2.0&amp;FingerJoint_play=0.0&amp;FingerJoint_space=2.0&amp;FingerJoint_width=1.0&amp;x=400&amp;y=220&amp;h=120&amp;outside=0&amp;outside=1&amp;triangle=40&amp;d1=2.0&amp;d2=3.0&amp;d3=3.0&amp;outsidemounts=0&amp;outsidemounts=1&amp;holedist=7.0&amp;thickness=5&amp;format=svg&amp;tabs=0.0&amp;debug=0&amp;labels=0&amp;labels=1&amp;reference=100&amp;inner_corners=loop&amp;burn=0.1&amp;render=1
SettingsUrl: http://www.festi.info/ElectronicsBox?FingerJoint_angle=90.0&amp;FingerJoint_style=rectangular&amp;FingerJoint_surroundingspaces=2.0&amp;FingerJoint_edge_width=1.0&amp;FingerJoint_extra_length=0.0&amp;FingerJoint_finger=2.0&amp;FingerJoint_play=0.0&amp;FingerJoint_space=2.0&amp;FingerJoint_width=1.0&amp;x=400&amp;y=220&amp;h=120&amp;outside=0&amp;outside=1&amp;triangle=40&amp;d1=2.0&amp;d2=3.0&amp;d3=3.0&amp;outsidemounts=0&amp;outsidemounts=1&amp;holedist=7.0&amp;thickness=5&amp;format=svg&amp;tabs=0.0&amp;debug=0&amp;labels=0&amp;labels=1&amp;reference=100&amp;inner_corners=loop&amp;burn=0.1
</dc:description>
      </cc:Work>
    </rdf:RDF>
  </metadata>
  <g
     id="g10186"
     transform="translate(-3.2354025,-53.384141)">
    <g
       id="p-6"
       style="fill:none;stroke:url(#linearGradient3910);stroke-linecap:round;stroke-linejoin:round">
      <path
         d="m 25.133,259.667 c 0,0.268 -0.077,0.531 -0.222,0.757 -0.145,0.225 -0.352,0.405 -0.596,0.516 -0.244,0.112 -0.515,0.151 -0.781,0.112 -0.266,-0.038 -0.515,-0.152 -0.717,-0.327 -0.203,-0.176 -0.351,-0.406 -0.427,-0.664 -0.076,-0.257 -0.076,-0.531 0,-0.789 0.076,-0.257 0.224,-0.488 0.427,-0.663 0.202,-0.176 0.451,-0.29 0.717,-0.328 0.266,-0.038 0.537,10e-4 0.781,0.112 0.244,0.112 0.451,0.291 0.596,0.517 0.145,0.226 0.222,0.488 0.222,0.757 z"
         stroke="rgb(0,0,255)"
         stroke-width="0.2"
         id="path1329"
         style="fill:none;stroke:url(#linearGradient13402)" />
      <text
         transform="translate(205.4,166.1)"
         style="font-style:normal;font-weight:normal;font-family:sans-serif;fill:none;stroke:url(#linearGradient13404)"
         font-size="4px"
         text-anchor="middle"
         dominant-baseline="hanging"
         id="text1331" />
      <path
         d="m 10.4,273.1 h 390 c 0.055,0 0.1,-0.045 0.1,-0.1 V 63 c 0,-0.055 -0.045,-0.1 -0.1,-0.1 h -390 c -0.055,0 -0.1,0.045 -0.1,0.1 v 210 c 0,0.055 0.045,0.1 0.1,0.1"
         stroke="rgb(0,0,0)"
         stroke-width="0.2"
         id="path1333"
         style="fill:none;stroke:url(#linearGradient13406)" />
      <path
         d="m 387.067,258.267 c 0.268,0 0.531,0.077 0.757,0.222 0.225,0.145 0.405,0.352 0.516,0.596 0.112,0.244 0.151,0.515 0.112,0.781 -0.038,0.266 -0.152,0.515 -0.327,0.717 -0.176,0.203 -0.406,0.351 -0.664,0.427 -0.257,0.076 -0.531,0.076 -0.789,0 -0.257,-0.076 -0.488,-0.224 -0.663,-0.427 -0.176,-0.202 -0.29,-0.451 -0.328,-0.717 -0.038,-0.266 0.001,-0.537 0.112,-0.781 0.112,-0.244 0.291,-0.451 0.517,-0.596 0.226,-0.145 0.488,-0.222 0.757,-0.222 z"
         stroke="rgb(0,0,255)"
         stroke-width="0.2"
         id="path1335"
         style="fill:none;stroke:url(#linearGradient13408)" />
      <path
         d="m 385.667,76.333 c 0,-0.268 0.077,-0.531 0.222,-0.757 0.145,-0.225 0.352,-0.405 0.596,-0.516 0.244,-0.112 0.515,-0.151 0.781,-0.112 0.266,0.038 0.515,0.152 0.717,0.327 0.203,0.176 0.351,0.406 0.427,0.664 0.076,0.257 0.076,0.531 0,0.789 -0.076,0.257 -0.224,0.488 -0.427,0.663 -0.202,0.176 -0.451,0.29 -0.717,0.328 -0.266,0.038 -0.537,-10e-4 -0.781,-0.112 -0.244,-0.112 -0.451,-0.291 -0.596,-0.517 -0.145,-0.226 -0.222,-0.488 -0.222,-0.757 z"
         stroke="rgb(0,0,255)"
         stroke-width="0.2"
         id="path1337"
         style="fill:none;stroke:url(#linearGradient13410)" />
      <path
         d="m 23.733,77.733 c -0.268,0 -0.531,-0.077 -0.757,-0.222 -0.225,-0.145 -0.405,-0.352 -0.516,-0.596 -0.112,-0.244 -0.151,-0.515 -0.112,-0.781 0.038,-0.266 0.152,-0.515 0.327,-0.717 0.176,-0.203 0.406,-0.351 0.664,-0.427 0.257,-0.076 0.531,-0.076 0.789,0 0.257,0.076 0.488,0.224 0.663,0.427 0.176,0.202 0.29,0.451 0.328,0.717 0.038,0.266 -0.001,0.537 -0.112,0.781 -0.112,0.244 -0.291,0.451 -0.517,0.596 -0.226,0.145 -0.488,0.222 -0.757,0.222 z"
         stroke="rgb(0,0,255)"
         stroke-width="0.2"
         id="path1339"
         style="fill:none;stroke:url(#linearGradient13412)" />
    </g>
    <text
       xml:space="preserve"
       style="font-style:italic;font-size:9.87777px;font-family:sans-serif;-inkscape-font-specification:'sans-serif, Italic';direction:ltr;fill:none;stroke:#090000;stroke-width:1"
       x="188.9072"
       y="163.54239"
       id="text4918"><tspan
         sodipodi:role="line"
         id="tspan4916"
         style="stroke-width:1"
         x="188.9072"
         y="163.54239">Top</tspan></text>
  </g>
  <g
     id="g10213"
     transform="rotate(-89.651421,214.02399,427.28379)">
    <g
       id="p-2"
       style="fill:none;stroke:url(#linearGradient3904);stroke-linecap:round;stroke-linejoin:round">
      <path
         d="m 438.1,631 h -4.9 c -0.1,0 0,0.1 0,0 v -4.8 c 0,-0.1 -0.1,0 0,0 h 9.8 c 0.1,0 0,-0.1 0,0 v 4.8 c 0,0.1 0.1,0 0,0 z"
         stroke="rgb(0,0,255)"
         stroke-width="0.2"
         id="path1249"
         style="fill:none;stroke:url(#linearGradient13414)" />
      <path
         d="m 608.1,626.2 h 4.9 c 0.1,0 0,-0.1 0,0 v 4.8 c 0,0.1 0.1,0 0,0 h -9.8 c -0.1,0 0,0.1 0,0 v -4.8 c 0,-0.1 -0.1,0 0,0 z"
         stroke="rgb(0,0,255)"
         stroke-width="0.2"
         id="path1251"
         style="fill:none;stroke:url(#linearGradient13416)" />
      <text
         transform="translate(523.1,679.2)"
         style="font-style:normal;font-weight:normal;font-family:sans-serif;fill:none;stroke:url(#linearGradient13418)"
         font-size="4px"
         text-anchor="middle"
         dominant-baseline="hanging"
         id="text1253" />
      <path
         d="m 418.1,736.2 h 9.9 c 0.1,0 0,-0.1 0,0 v 4.9 c 0,0.055 0.045,0.1 0.1,0.1 h 10 c 0.055,0 0.1,-0.045 0.1,-0.1 v -4.9 c 0,-0.1 -0.1,0 0,0 h 9.8 c 0.1,0 0,-0.1 0,0 v 4.9 c 0,0.055 0.045,0.1 0.1,0.1 h 10 c 0.055,0 0.1,-0.045 0.1,-0.1 v -4.9 c 0,-0.1 -0.1,0 0,0 h 9.8 c 0.1,0 0,-0.1 0,0 v 4.9 c 0,0.055 0.045,0.1 0.1,0.1 h 10 c 0.055,0 0.1,-0.045 0.1,-0.1 v -4.9 c 0,-0.1 -0.1,0 0,0 h 9.8 c 0.1,0 0,-0.1 0,0 v 4.9 c 0,0.055 0.045,0.1 0.1,0.1 h 10 c 0.055,0 0.1,-0.045 0.1,-0.1 v -4.9 c 0,-0.1 -0.1,0 0,0 h 9.8 c 0.1,0 0,-0.1 0,0 v 4.9 c 0,0.055 0.045,0.1 0.1,0.1 h 10 c 0.055,0 0.1,-0.045 0.1,-0.1 v -4.9 c 0,-0.1 -0.1,0 0,0 h 9.8 c 0.1,0 0,-0.1 0,0 v 4.9 c 0,0.055 0.045,0.1 0.1,0.1 h 10 c 0.055,0 0.1,-0.045 0.1,-0.1 v -4.9 c 0,-0.1 -0.1,0 0,0 h 9.8 c 0.1,0 0,-0.1 0,0 v 4.9 c 0,0.055 0.045,0.1 0.1,0.1 h 10 c 0.055,0 0.1,-0.045 0.1,-0.1 v -4.9 c 0,-0.1 -0.1,0 0,0 h 9.8 c 0.1,0 0,-0.1 0,0 v 4.9 c 0,0.055 0.045,0.1 0.1,0.1 h 10 c 0.055,0 0.1,-0.045 0.1,-0.1 v -4.9 c 0,-0.1 -0.1,0 0,0 h 9.8 c 0.1,0 0,-0.1 0,0 v 4.9 c 0,0.055 0.045,0.1 0.1,0.1 h 10 c 0.055,0 0.1,-0.045 0.1,-0.1 v -4.9 c 0,-0.1 -0.1,0 0,0 h 9.8 c 0.1,0 0,-0.1 0,0 v 4.9 c 0,0.055 0.045,0.1 0.1,0.1 h 10 c 0.055,0 0.1,-0.045 0.1,-0.1 v -4.9 c 0,-0.1 -0.1,0 0,0 h 9.9 c 0.055,0 0.1,-0.045 0.1,-0.1 v -12.4 c 0,-0.1 -0.1,0 0,0 h 4.9 c 0.055,0 0.1,-0.045 0.1,-0.1 v -10 c 0,-0.055 -0.045,-0.1 -0.1,-0.1 h -4.9 c -0.1,0 0,0.1 0,0 v -9.8 c 0,-0.1 -0.1,0 0,0 h 4.9 c 0.055,0 0.1,-0.045 0.1,-0.1 v -10 c 0,-0.055 -0.045,-0.1 -0.1,-0.1 h -4.9 c -0.1,0 0,0.1 0,0 v -9.8 c 0,-0.1 -0.1,0 0,0 h 4.9 c 0.055,0 0.1,-0.045 0.1,-0.1 v -10 c 0,-0.055 -0.045,-0.1 -0.1,-0.1 h -4.9 c -0.1,0 0,0.1 0,0 v -9.8 c 0,-0.1 -0.1,0 0,0 h 4.9 c 0.055,0 0.1,-0.045 0.1,-0.1 v -10 c 0,-0.055 -0.045,-0.1 -0.1,-0.1 h -4.9 c -0.1,0 0,0.1 0,0 v -9.8 c 0,-0.1 -0.1,0 0,0 h 4.9 c 0.055,0 0.1,-0.045 0.1,-0.1 v -10 c 0,-0.055 -0.045,-0.1 -0.1,-0.1 h -4.9 c -0.1,0 0,0.1 0,0 v -12.4 c 0,-0.055 -0.045,-0.1 -0.1,-0.1 h -210 c -0.055,0 -0.1,0.045 -0.1,0.1 v 12.4 c 0,0.1 0.1,0 0,0 h -4.9 c -0.055,0 -0.1,0.045 -0.1,0.1 v 10 c 0,0.055 0.045,0.1 0.1,0.1 h 4.9 c 0.1,0 0,-0.1 0,0 v 9.8 c 0,0.1 0.1,0 0,0 h -4.9 c -0.055,0 -0.1,0.045 -0.1,0.1 v 10 c 0,0.055 0.045,0.1 0.1,0.1 h 4.9 c 0.1,0 0,-0.1 0,0 v 9.8 c 0,0.1 0.1,0 0,0 h -4.9 c -0.055,0 -0.1,0.045 -0.1,0.1 v 10 c 0,0.055 0.045,0.1 0.1,0.1 h 4.9 c 0.1,0 0,-0.1 0,0 v 9.8 c 0,0.1 0.1,0 0,0 h -4.9 c -0.055,0 -0.1,0.045 -0.1,0.1 v 10 c 0,0.055 0.045,0.1 0.1,0.1 h 4.9 c 0.1,0 0,-0.1 0,0 v 9.8 c 0,0.1 0.1,0 0,0 h -4.9 c -0.055,0 -0.1,0.045 -0.1,0.1 v 10 c 0,0.055 0.045,0.1 0.1,0.1 h 4.9 c 0.1,0 0,-0.1 0,0 v 12.4 c 0,0.055 0.045,0.1 0.1,0.1"
         stroke="rgb(0,0,0)"
         stroke-width="0.2"
         id="path1255"
         style="fill:none;stroke:url(#linearGradient13420)" />
    </g>
    <text
       xml:space="preserve"
       style="font-style:italic;font-size:9.87777px;font-family:sans-serif;-inkscape-font-specification:'sans-serif, Italic';direction:ltr;fill:none;stroke:#090000;stroke-width:1"
       x="507.77386"
       y="681.95203"
       id="text4922"><tspan
         sodipodi:role="line"
         id="tspan4920"
         style="stroke-width:1"
         x="507.77386"
         y="681.95203">Wall 2</tspan></text>
  </g>
</svg>
