<?xml version="1.0" encoding="UTF-8" standalone="no"?>
<!-- Created with Inkscape (http://www.inkscape.org/) -->

<svg
   width="600mm"
   height="300mm"
   viewBox="0 0 600 300"
   version="1.1"
   id="svg6489"
   inkscape:version="1.2.1 (9c6d41e4, 2022-07-14)"
   sodipodi:docname="boite.svg"
   xmlns:inkscape="http://www.inkscape.org/namespaces/inkscape"
   xmlns:sodipodi="http://sodipodi.sourceforge.net/DTD/sodipodi-0.dtd"
   xmlns:xlink="http://www.w3.org/1999/xlink"
   xmlns="http://www.w3.org/2000/svg"
   xmlns:svg="http://www.w3.org/2000/svg">
  <sodipodi:namedview
     id="namedview6491"
     pagecolor="#ffffff"
     bordercolor="#000000"
     borderopacity="0.25"
     inkscape:showpageshadow="2"
     inkscape:pageopacity="0.0"
     inkscape:pagecheckerboard="0"
     inkscape:deskcolor="#d1d1d1"
     inkscape:document-units="mm"
     showgrid="false"
     inkscape:zoom="0.2102413"
     inkscape:cx="1258.0782"
     inkscape:cy="561.25984"
     inkscape:window-width="769"
     inkscape:window-height="706"
     inkscape:window-x="488"
     inkscape:window-y="23"
     inkscape:window-maximized="0"
     inkscape:current-layer="layer1" />
  <defs
     id="defs6486">
    <linearGradient
       id="linearGradient3898"
       inkscape:swatch="solid">
      <stop
         style="stop-color:#ff0000;stop-opacity:1;"
         offset="0"
         id="stop3896" />
    </linearGradient>
    <linearGradient
       inkscape:collect="always"
       xlink:href="#linearGradient3898"
       id="linearGradient3908"
       x1="10.2"
       y1="385.70001"
       x2="438.60001"
       y2="385.70001"
       gradientUnits="userSpaceOnUse" />
    <linearGradient
       inkscape:collect="always"
       xlink:href="#linearGradient3898"
       id="linearGradient11262"
       gradientUnits="userSpaceOnUse"
       x1="10.2"
       y1="385.70001"
       x2="438.60001"
       y2="385.70001" />
    <linearGradient
       inkscape:collect="always"
       xlink:href="#linearGradient3898"
       id="linearGradient11264"
       gradientUnits="userSpaceOnUse"
       x1="10.2"
       y1="385.70001"
       x2="438.60001"
       y2="385.70001" />
    <linearGradient
       inkscape:collect="always"
       xlink:href="#linearGradient3898"
       id="linearGradient11266"
       gradientUnits="userSpaceOnUse"
       x1="10.2"
       y1="385.70001"
       x2="438.60001"
       y2="385.70001" />
    <linearGradient
       inkscape:collect="always"
       xlink:href="#linearGradient3898"
       id="linearGradient11268"
       gradientUnits="userSpaceOnUse"
       x1="10.2"
       y1="385.70001"
       x2="438.60001"
       y2="385.70001" />
    <linearGradient
       inkscape:collect="always"
       xlink:href="#linearGradient3898"
       id="linearGradient11270"
       gradientUnits="userSpaceOnUse"
       x1="10.2"
       y1="385.70001"
       x2="438.60001"
       y2="385.70001" />
    <linearGradient
       inkscape:collect="always"
       xlink:href="#linearGradient3898"
       id="linearGradient11272"
       gradientUnits="userSpaceOnUse"
       x1="10.2"
       y1="385.70001"
       x2="438.60001"
       y2="385.70001" />
    <linearGradient
       inkscape:collect="always"
       xlink:href="#linearGradient3898"
       id="linearGradient11274"
       gradientUnits="userSpaceOnUse"
       x1="10.2"
       y1="385.70001"
       x2="438.60001"
       y2="385.70001" />
    <linearGradient
       inkscape:collect="always"
       xlink:href="#linearGradient3898"
       id="linearGradient11276"
       gradientUnits="userSpaceOnUse"
       x1="10.2"
       y1="385.70001"
       x2="438.60001"
       y2="385.70001" />
    <linearGradient
       inkscape:collect="always"
       xlink:href="#linearGradient3898"
       id="linearGradient11278"
       gradientUnits="userSpaceOnUse"
       x1="10.2"
       y1="385.70001"
       x2="438.60001"
       y2="385.70001" />
    <linearGradient
       inkscape:collect="always"
       xlink:href="#linearGradient3898"
       id="linearGradient11280"
       gradientUnits="userSpaceOnUse"
       x1="10.2"
       y1="385.70001"
       x2="438.60001"
       y2="385.70001" />
    <linearGradient
       inkscape:collect="always"
       xlink:href="#linearGradient3898"
       id="linearGradient11282"
       gradientUnits="userSpaceOnUse"
       x1="10.2"
       y1="385.70001"
       x2="438.60001"
       y2="385.70001" />
    <linearGradient
       inkscape:collect="always"
       xlink:href="#linearGradient3898"
       id="linearGradient11284"
       gradientUnits="userSpaceOnUse"
       x1="10.2"
       y1="385.70001"
       x2="438.60001"
       y2="385.70001" />
    <linearGradient
       inkscape:collect="always"
       xlink:href="#linearGradient3898"
       id="linearGradient11286"
       gradientUnits="userSpaceOnUse"
       x1="10.2"
       y1="385.70001"
       x2="438.60001"
       y2="385.70001" />
    <linearGradient
       inkscape:collect="always"
       xlink:href="#linearGradient3898"
       id="linearGradient11288"
       gradientUnits="userSpaceOnUse"
       x1="10.2"
       y1="385.70001"
       x2="438.60001"
       y2="385.70001" />
    <linearGradient
       inkscape:collect="always"
       xlink:href="#linearGradient3898"
       id="linearGradient11290"
       gradientUnits="userSpaceOnUse"
       x1="10.2"
       y1="385.70001"
       x2="438.60001"
       y2="385.70001" />
    <linearGradient
       inkscape:collect="always"
       xlink:href="#linearGradient3898"
       id="linearGradient11292"
       gradientUnits="userSpaceOnUse"
       x1="10.2"
       y1="385.70001"
       x2="438.60001"
       y2="385.70001" />
    <linearGradient
       inkscape:collect="always"
       xlink:href="#linearGradient3898"
       id="linearGradient11294"
       gradientUnits="userSpaceOnUse"
       x1="10.2"
       y1="385.70001"
       x2="438.60001"
       y2="385.70001" />
    <linearGradient
       inkscape:collect="always"
       xlink:href="#linearGradient3898"
       id="linearGradient11296"
       gradientUnits="userSpaceOnUse"
       x1="10.2"
       y1="385.70001"
       x2="438.60001"
       y2="385.70001" />
    <linearGradient
       inkscape:collect="always"
       xlink:href="#linearGradient3898"
       id="linearGradient11298"
       gradientUnits="userSpaceOnUse"
       x1="10.2"
       y1="385.70001"
       x2="438.60001"
       y2="385.70001" />
    <linearGradient
       inkscape:collect="always"
       xlink:href="#linearGradient3898"
       id="linearGradient11300"
       gradientUnits="userSpaceOnUse"
       x1="10.2"
       y1="385.70001"
       x2="438.60001"
       y2="385.70001" />
    <linearGradient
       inkscape:collect="always"
       xlink:href="#linearGradient3898"
       id="linearGradient11302"
       gradientUnits="userSpaceOnUse"
       x1="10.2"
       y1="385.70001"
       x2="438.60001"
       y2="385.70001" />
    <linearGradient
       inkscape:collect="always"
       xlink:href="#linearGradient3898"
       id="linearGradient11304"
       gradientUnits="userSpaceOnUse"
       x1="10.2"
       y1="385.70001"
       x2="438.60001"
       y2="385.70001" />
    <linearGradient
       inkscape:collect="always"
       xlink:href="#linearGradient3898"
       id="linearGradient11306"
       gradientUnits="userSpaceOnUse"
       x1="10.2"
       y1="385.70001"
       x2="438.60001"
       y2="385.70001" />
    <linearGradient
       inkscape:collect="always"
       xlink:href="#linearGradient3898"
       id="linearGradient11308"
       gradientUnits="userSpaceOnUse"
       x1="10.2"
       y1="385.70001"
       x2="438.60001"
       y2="385.70001" />
    <linearGradient
       inkscape:collect="always"
       xlink:href="#linearGradient3898"
       id="linearGradient11310"
       gradientUnits="userSpaceOnUse"
       x1="10.2"
       y1="385.70001"
       x2="438.60001"
       y2="385.70001" />
    <linearGradient
       inkscape:collect="always"
       xlink:href="#linearGradient3898"
       id="linearGradient11312"
       gradientUnits="userSpaceOnUse"
       x1="10.2"
       y1="385.70001"
       x2="438.60001"
       y2="385.70001" />
    <linearGradient
       inkscape:collect="always"
       xlink:href="#linearGradient3898"
       id="linearGradient3902"
       x1="412.89999"
       y1="558.40002"
       x2="633.29999"
       y2="558.40002"
       gradientUnits="userSpaceOnUse" />
    <linearGradient
       inkscape:collect="always"
       xlink:href="#linearGradient3898"
       id="linearGradient12998"
       gradientUnits="userSpaceOnUse"
       x1="412.89999"
       y1="558.40002"
       x2="633.29999"
       y2="558.40002" />
    <linearGradient
       inkscape:collect="always"
       xlink:href="#linearGradient3898"
       id="linearGradient13000"
       gradientUnits="userSpaceOnUse"
       x1="412.89999"
       y1="558.40002"
       x2="633.29999"
       y2="558.40002" />
    <linearGradient
       inkscape:collect="always"
       xlink:href="#linearGradient3898"
       id="linearGradient13002"
       gradientUnits="userSpaceOnUse"
       x1="412.89999"
       y1="558.40002"
       x2="633.29999"
       y2="558.40002" />
    <linearGradient
       inkscape:collect="always"
       xlink:href="#linearGradient3898"
       id="linearGradient13004"
       gradientUnits="userSpaceOnUse"
       x1="412.89999"
       y1="558.40002"
       x2="633.29999"
       y2="558.40002" />
    <linearGradient
       inkscape:collect="always"
       xlink:href="#linearGradient3898"
       id="linearGradient3912"
       x1="10.2"
       y1="35.200001"
       x2="128.57401"
       y2="35.200001"
       gradientUnits="userSpaceOnUse" />
    <linearGradient
       inkscape:collect="always"
       xlink:href="#linearGradient3898"
       id="linearGradient13205"
       gradientUnits="userSpaceOnUse"
       x1="10.2"
       y1="35.200001"
       x2="128.57401"
       y2="35.200001" />
    <linearGradient
       inkscape:collect="always"
       xlink:href="#linearGradient3898"
       id="linearGradient13207"
       gradientUnits="userSpaceOnUse"
       x1="10.2"
       y1="35.200001"
       x2="128.57401"
       y2="35.200001" />
    <linearGradient
       inkscape:collect="always"
       xlink:href="#linearGradient3898"
       id="linearGradient13209"
       gradientUnits="userSpaceOnUse"
       x1="10.2"
       y1="35.200001"
       x2="128.57401"
       y2="35.200001" />
    <linearGradient
       inkscape:collect="always"
       xlink:href="#linearGradient3898"
       id="linearGradient13211"
       gradientUnits="userSpaceOnUse"
       x1="10.2"
       y1="35.200001"
       x2="128.57401"
       y2="35.200001" />
    <linearGradient
       inkscape:collect="always"
       xlink:href="#linearGradient3898"
       id="linearGradient13213"
       gradientUnits="userSpaceOnUse"
       x1="10.2"
       y1="35.200001"
       x2="128.57401"
       y2="35.200001" />
    <linearGradient
       inkscape:collect="always"
       xlink:href="#linearGradient3898"
       id="linearGradient13215"
       gradientUnits="userSpaceOnUse"
       x1="10.2"
       y1="35.200001"
       x2="128.57401"
       y2="35.200001" />
    <linearGradient
       inkscape:collect="always"
       xlink:href="#linearGradient3898"
       id="linearGradient13217"
       gradientUnits="userSpaceOnUse"
       x1="10.2"
       y1="35.200001"
       x2="128.57401"
       y2="35.200001" />
    <linearGradient
       inkscape:collect="always"
       xlink:href="#linearGradient3898"
       id="linearGradient13219"
       gradientUnits="userSpaceOnUse"
       x1="10.2"
       y1="35.200001"
       x2="128.57401"
       y2="35.200001" />
  </defs>
  <g
     inkscape:label="Calque 1"
     inkscape:groupmode="layer"
     id="layer1">
    <g
       id="g10175"
       transform="rotate(-179.95539,222.89422,253.25736)">
      <g
         id="p-5"
         style="fill:none;stroke:url(#linearGradient3908);stroke-linecap:round;stroke-linejoin:round">
        <path
           d="m 18.8,488.7 c 0,0.268 -0.077,0.531 -0.222,0.757 -0.145,0.226 -0.352,0.405 -0.596,0.516 -0.245,0.112 -0.516,0.151 -0.781,0.113 -0.266,-0.038 -0.515,-0.152 -0.718,-0.328 -0.203,-0.176 -0.351,-0.406 -0.426,-0.664 -0.076,-0.257 -0.076,-0.531 0,-0.788 0.075,-0.258 0.223,-0.488 0.426,-0.664 0.203,-0.176 0.452,-0.29 0.718,-0.328 0.265,-0.038 0.536,10e-4 0.781,0.113 0.244,0.111 0.451,0.29 0.596,0.516 0.145,0.226 0.222,0.489 0.222,0.757 z"
           stroke="rgb(0,0,255)"
           stroke-width="0.2"
           id="path1276"
           style="fill:none;stroke:url(#linearGradient11262)" />
        <text
           transform="translate(224.4,383.8)"
           style="font-style:normal;font-weight:normal;font-family:sans-serif;fill:none;stroke:url(#linearGradient11264)"
           font-size="4px"
           text-anchor="middle"
           dominant-baseline="hanging"
           id="text1278" />
        <path
           d="m 17.4,495.8 h 12 10 c 0.055,0 0.1,-0.045 0.1,-0.1 v -4.9 c 0,-0.1 -0.1,0 0,0 h 9.8 c 0.1,0 0,-0.1 0,0 v 4.9 c 0,0.055 0.045,0.1 0.1,0.1 h 10 c 0.055,0 0.1,-0.045 0.1,-0.1 v -4.9 c 0,-0.1 -0.1,0 0,0 h 9.8 c 0.1,0 0,-0.1 0,0 v 4.9 c 0,0.055 0.045,0.1 0.1,0.1 h 10 c 0.055,0 0.1,-0.045 0.1,-0.1 v -4.9 c 0,-0.1 -0.1,0 0,0 h 9.8 c 0.1,0 0,-0.1 0,0 v 4.9 c 0,0.055 0.045,0.1 0.1,0.1 h 10 c 0.055,0 0.1,-0.045 0.1,-0.1 v -4.9 c 0,-0.1 -0.1,0 0,0 h 9.8 c 0.1,0 0,-0.1 0,0 v 4.9 c 0,0.055 0.045,0.1 0.1,0.1 h 10 c 0.055,0 0.1,-0.045 0.1,-0.1 v -4.9 c 0,-0.1 -0.1,0 0,0 h 9.8 c 0.1,0 0,-0.1 0,0 v 4.9 c 0,0.055 0.045,0.1 0.1,0.1 h 10 c 0.055,0 0.1,-0.045 0.1,-0.1 v -4.9 c 0,-0.1 -0.1,0 0,0 h 9.8 c 0.1,0 0,-0.1 0,0 v 4.9 c 0,0.055 0.045,0.1 0.1,0.1 h 10 c 0.055,0 0.1,-0.045 0.1,-0.1 v -4.9 c 0,-0.1 -0.1,0 0,0 h 9.8 c 0.1,0 0,-0.1 0,0 v 4.9 c 0,0.055 0.045,0.1 0.1,0.1 h 10 c 0.055,0 0.1,-0.045 0.1,-0.1 v -4.9 c 0,-0.1 -0.1,0 0,0 h 9.8 c 0.1,0 0,-0.1 0,0 v 4.9 c 0,0.055 0.045,0.1 0.1,0.1 h 10 c 0.055,0 0.1,-0.045 0.1,-0.1 v -4.9 c 0,-0.1 -0.1,0 0,0 h 9.8 c 0.1,0 0,-0.1 0,0 v 4.9 c 0,0.055 0.045,0.1 0.1,0.1 h 10 c 0.055,0 0.1,-0.045 0.1,-0.1 v -4.9 c 0,-0.1 -0.1,0 0,0 h 9.8 c 0.1,0 0,-0.1 0,0 v 4.9 c 0,0.055 0.045,0.1 0.1,0.1 h 10 c 0.055,0 0.1,-0.045 0.1,-0.1 v -4.9 c 0,-0.1 -0.1,0 0,0 h 9.8 c 0.1,0 0,-0.1 0,0 v 4.9 c 0,0.055 0.045,0.1 0.1,0.1 h 10 c 0.055,0 0.1,-0.045 0.1,-0.1 v -4.9 c 0,-0.1 -0.1,0 0,0 h 9.8 c 0.1,0 0,-0.1 0,0 v 4.9 c 0,0.055 0.045,0.1 0.1,0.1 h 10 c 0.055,0 0.1,-0.045 0.1,-0.1 v -4.9 c 0,-0.1 -0.1,0 0,0 h 9.8 c 0.1,0 0,-0.1 0,0 v 4.9 c 0,0.055 0.045,0.1 0.1,0.1 h 10 c 0.055,0 0.1,-0.045 0.1,-0.1 v -4.9 c 0,-0.1 -0.1,0 0,0 h 9.8 c 0.1,0 0,-0.1 0,0 v 4.9 c 0,0.055 0.045,0.1 0.1,0.1 h 10 c 0.055,0 0.1,-0.045 0.1,-0.1 v -4.9 c 0,-0.1 -0.1,0 0,0 h 9.8 c 0.1,0 0,-0.1 0,0 v 4.9 c 0,0.055 0.045,0.1 0.1,0.1 h 10 c 0.055,0 0.1,-0.045 0.1,-0.1 v -4.9 c 0,-0.1 -0.1,0 0,0 h 9.8 c 0.1,0 0,-0.1 0,0 v 4.9 c 0,0.055 0.045,0.1 0.1,0.1 h 10 c 0.055,0 0.1,-0.045 0.1,-0.1 v -4.9 c 0,-0.1 -0.1,0 0,0 h 9.8 c 0.1,0 0,-0.1 0,0 v 4.9 c 0,0.055 0.045,0.1 0.1,0.1 h 10 c 0.055,0 0.1,-0.045 0.1,-0.1 v -4.9 c 0,-0.1 -0.1,0 0,0 h 9.8 c 0.1,0 0,-0.1 0,0 v 4.9 c 0,0.055 0.045,0.1 0.1,0.1 h 10 c 0.055,0 0.1,-0.045 0.1,-0.1 v -4.9 c 0,-0.1 -0.1,0 0,0 h 9.8 c 0.1,0 0,-0.1 0,0 v 4.9 c 0,0.055 0.045,0.1 0.1,0.1 h 10 12 c 1.246,0 2.471,-0.328 3.55,-0.951 1.079,-0.623 1.976,-1.52 2.599,-2.599 0.623,-1.079 0.951,-2.304 0.951,-3.55 v -206 c 0,-1.246 -0.328,-2.471 -0.951,-3.55 -0.623,-1.079 -1.52,-1.976 -2.599,-2.599 -1.079,-0.623 -2.304,-0.951 -3.55,-0.951 h -12 -10 c -0.055,0 -0.1,0.045 -0.1,0.1 v 4.9 c 0,0.1 0.1,0 0,0 h -9.8 c -0.1,0 0,0.1 0,0 v -4.9 c 0,-0.055 -0.045,-0.1 -0.1,-0.1 h -10 c -0.055,0 -0.1,0.045 -0.1,0.1 v 4.9 c 0,0.1 0.1,0 0,0 h -9.8 c -0.1,0 0,0.1 0,0 v -4.9 c 0,-0.055 -0.045,-0.1 -0.1,-0.1 h -10 c -0.055,0 -0.1,0.045 -0.1,0.1 v 4.9 c 0,0.1 0.1,0 0,0 h -9.8 c -0.1,0 0,0.1 0,0 v -4.9 c 0,-0.055 -0.045,-0.1 -0.1,-0.1 h -10 c -0.055,0 -0.1,0.045 -0.1,0.1 v 4.9 c 0,0.1 0.1,0 0,0 h -9.8 c -0.1,0 0,0.1 0,0 v -4.9 c 0,-0.055 -0.045,-0.1 -0.1,-0.1 h -10 c -0.055,0 -0.1,0.045 -0.1,0.1 v 4.9 c 0,0.1 0.1,0 0,0 h -9.8 c -0.1,0 0,0.1 0,0 v -4.9 c 0,-0.055 -0.045,-0.1 -0.1,-0.1 h -10 c -0.055,0 -0.1,0.045 -0.1,0.1 v 4.9 c 0,0.1 0.1,0 0,0 h -9.8 c -0.1,0 0,0.1 0,0 v -4.9 c 0,-0.055 -0.045,-0.1 -0.1,-0.1 h -10 c -0.055,0 -0.1,0.045 -0.1,0.1 v 4.9 c 0,0.1 0.1,0 0,0 h -9.8 c -0.1,0 0,0.1 0,0 v -4.9 c 0,-0.055 -0.045,-0.1 -0.1,-0.1 h -10 c -0.055,0 -0.1,0.045 -0.1,0.1 v 4.9 c 0,0.1 0.1,0 0,0 h -9.8 c -0.1,0 0,0.1 0,0 v -4.9 c 0,-0.055 -0.045,-0.1 -0.1,-0.1 h -10 c -0.055,0 -0.1,0.045 -0.1,0.1 v 4.9 c 0,0.1 0.1,0 0,0 h -9.8 c -0.1,0 0,0.1 0,0 v -4.9 c 0,-0.055 -0.045,-0.1 -0.1,-0.1 h -10 c -0.055,0 -0.1,0.045 -0.1,0.1 v 4.9 c 0,0.1 0.1,0 0,0 h -9.8 c -0.1,0 0,0.1 0,0 v -4.9 c 0,-0.055 -0.045,-0.1 -0.1,-0.1 h -10 c -0.055,0 -0.1,0.045 -0.1,0.1 v 4.9 c 0,0.1 0.1,0 0,0 h -9.8 c -0.1,0 0,0.1 0,0 v -4.9 c 0,-0.055 -0.045,-0.1 -0.1,-0.1 h -10 c -0.055,0 -0.1,0.045 -0.1,0.1 v 4.9 c 0,0.1 0.1,0 0,0 h -9.8 c -0.1,0 0,0.1 0,0 v -4.9 c 0,-0.055 -0.045,-0.1 -0.1,-0.1 h -10 c -0.055,0 -0.1,0.045 -0.1,0.1 v 4.9 c 0,0.1 0.1,0 0,0 h -9.8 c -0.1,0 0,0.1 0,0 v -4.9 c 0,-0.055 -0.045,-0.1 -0.1,-0.1 h -10 c -0.055,0 -0.1,0.045 -0.1,0.1 v 4.9 c 0,0.1 0.1,0 0,0 h -9.8 c -0.1,0 0,0.1 0,0 v -4.9 c 0,-0.055 -0.045,-0.1 -0.1,-0.1 h -10 c -0.055,0 -0.1,0.045 -0.1,0.1 v 4.9 c 0,0.1 0.1,0 0,0 h -9.8 c -0.1,0 0,0.1 0,0 v -4.9 c 0,-0.055 -0.045,-0.1 -0.1,-0.1 h -10 c -0.055,0 -0.1,0.045 -0.1,0.1 v 4.9 c 0,0.1 0.1,0 0,0 h -9.8 c -0.1,0 0,0.1 0,0 v -4.9 c 0,-0.055 -0.045,-0.1 -0.1,-0.1 h -10 c -0.055,0 -0.1,0.045 -0.1,0.1 v 4.9 c 0,0.1 0.1,0 0,0 h -9.8 c -0.1,0 0,0.1 0,0 v -4.9 c 0,-0.055 -0.045,-0.1 -0.1,-0.1 h -10 c -0.055,0 -0.1,0.045 -0.1,0.1 v 4.9 c 0,0.1 0.1,0 0,0 h -9.8 c -0.1,0 0,0.1 0,0 v -4.9 c 0,-0.055 -0.045,-0.1 -0.1,-0.1 h -10 c -0.055,0 -0.1,0.045 -0.1,0.1 v 4.9 c 0,0.1 0.1,0 0,0 h -9.8 c -0.1,0 0,0.1 0,0 v -4.9 c 0,-0.055 -0.045,-0.1 -0.1,-0.1 h -10 -12 c -1.246,0 -2.471,0.328 -3.55,0.951 -1.079,0.623 -1.976,1.52 -2.599,2.599 -0.623,1.079 -0.951,2.304 -0.951,3.55 v 206 c 0,1.246 0.328,2.471 0.951,3.55 0.623,1.079 1.52,1.976 2.599,2.599 1.079,0.623 2.304,0.951 3.55,0.951"
           stroke="rgb(0,0,0)"
           stroke-width="0.2"
           id="path1280"
           style="fill:none;stroke:url(#linearGradient11266)" />
        <path
           d="m 431.4,487.3 c 0.268,0 0.531,0.077 0.757,0.222 0.226,0.145 0.405,0.352 0.516,0.596 0.112,0.245 0.151,0.516 0.113,0.781 -0.038,0.266 -0.152,0.515 -0.328,0.718 -0.176,0.203 -0.406,0.351 -0.664,0.426 -0.257,0.076 -0.531,0.076 -0.788,0 -0.258,-0.075 -0.488,-0.223 -0.664,-0.426 -0.176,-0.203 -0.29,-0.452 -0.328,-0.718 -0.038,-0.265 10e-4,-0.536 0.113,-0.781 0.111,-0.244 0.29,-0.451 0.516,-0.596 0.226,-0.145 0.489,-0.222 0.757,-0.222 z"
           stroke="rgb(0,0,255)"
           stroke-width="0.2"
           id="path1282"
           style="fill:none;stroke:url(#linearGradient11268)" />
        <path
           d="m 424.4,475.7 v 4.9 c 0,0.1 0.1,0 0,0 h -4.8 c -0.1,0 0,0.1 0,0 v -9.8 c 0,-0.1 -0.1,0 0,0 h 4.8 c 0.1,0 0,-0.1 0,0 z"
           stroke="rgb(0,0,255)"
           stroke-width="0.2"
           id="path1284"
           style="fill:none;stroke:url(#linearGradient11270)" />
        <path
           d="m 424.4,455.7 v 4.9 c 0,0.1 0.1,0 0,0 h -4.8 c -0.1,0 0,0.1 0,0 v -9.8 c 0,-0.1 -0.1,0 0,0 h 4.8 c 0.1,0 0,-0.1 0,0 z"
           stroke="rgb(0,0,255)"
           stroke-width="0.2"
           id="path1286"
           style="fill:none;stroke:url(#linearGradient11272)" />
        <path
           d="m 424.4,435.7 v 4.9 c 0,0.1 0.1,0 0,0 h -4.8 c -0.1,0 0,0.1 0,0 v -9.8 c 0,-0.1 -0.1,0 0,0 h 4.8 c 0.1,0 0,-0.1 0,0 z"
           stroke="rgb(0,0,255)"
           stroke-width="0.2"
           id="path1288"
           style="fill:none;stroke:url(#linearGradient11274)" />
        <path
           d="m 424.4,415.7 v 4.9 c 0,0.1 0.1,0 0,0 h -4.8 c -0.1,0 0,0.1 0,0 v -9.8 c 0,-0.1 -0.1,0 0,0 h 4.8 c 0.1,0 0,-0.1 0,0 z"
           stroke="rgb(0,0,255)"
           stroke-width="0.2"
           id="path1290"
           style="fill:none;stroke:url(#linearGradient11276)" />
        <path
           d="m 424.4,395.7 v 4.9 c 0,0.1 0.1,0 0,0 h -4.8 c -0.1,0 0,0.1 0,0 v -9.8 c 0,-0.1 -0.1,0 0,0 h 4.8 c 0.1,0 0,-0.1 0,0 z"
           stroke="rgb(0,0,255)"
           stroke-width="0.2"
           id="path1292"
           style="fill:none;stroke:url(#linearGradient11278)" />
        <path
           d="m 424.4,375.7 v 4.9 c 0,0.1 0.1,0 0,0 h -4.8 c -0.1,0 0,0.1 0,0 v -9.8 c 0,-0.1 -0.1,0 0,0 h 4.8 c 0.1,0 0,-0.1 0,0 z"
           stroke="rgb(0,0,255)"
           stroke-width="0.2"
           id="path1294"
           style="fill:none;stroke:url(#linearGradient11280)" />
        <path
           d="m 424.4,355.7 v 4.9 c 0,0.1 0.1,0 0,0 h -4.8 c -0.1,0 0,0.1 0,0 v -9.8 c 0,-0.1 -0.1,0 0,0 h 4.8 c 0.1,0 0,-0.1 0,0 z"
           stroke="rgb(0,0,255)"
           stroke-width="0.2"
           id="path1296"
           style="fill:none;stroke:url(#linearGradient11282)" />
        <path
           d="m 424.4,335.7 v 4.9 c 0,0.1 0.1,0 0,0 h -4.8 c -0.1,0 0,0.1 0,0 v -9.8 c 0,-0.1 -0.1,0 0,0 h 4.8 c 0.1,0 0,-0.1 0,0 z"
           stroke="rgb(0,0,255)"
           stroke-width="0.2"
           id="path1298"
           style="fill:none;stroke:url(#linearGradient11284)" />
        <path
           d="m 424.4,315.7 v 4.9 c 0,0.1 0.1,0 0,0 h -4.8 c -0.1,0 0,0.1 0,0 v -9.8 c 0,-0.1 -0.1,0 0,0 h 4.8 c 0.1,0 0,-0.1 0,0 z"
           stroke="rgb(0,0,255)"
           stroke-width="0.2"
           id="path1300"
           style="fill:none;stroke:url(#linearGradient11286)" />
        <path
           d="m 424.4,295.7 v 4.9 c 0,0.1 0.1,0 0,0 h -4.8 c -0.1,0 0,0.1 0,0 v -9.8 c 0,-0.1 -0.1,0 0,0 h 4.8 c 0.1,0 0,-0.1 0,0 z"
           stroke="rgb(0,0,255)"
           stroke-width="0.2"
           id="path1302"
           style="fill:none;stroke:url(#linearGradient11288)" />
        <path
           d="m 430,282.7 c 0,-0.268 0.077,-0.531 0.222,-0.757 0.145,-0.226 0.352,-0.405 0.596,-0.516 0.245,-0.112 0.516,-0.151 0.781,-0.113 0.266,0.038 0.515,0.152 0.718,0.328 0.203,0.176 0.351,0.406 0.426,0.664 0.076,0.257 0.076,0.531 0,0.788 -0.075,0.258 -0.223,0.488 -0.426,0.664 -0.203,0.176 -0.452,0.29 -0.718,0.328 -0.265,0.038 -0.536,-0.001 -0.781,-0.113 -0.244,-0.111 -0.451,-0.29 -0.596,-0.516 C 430.077,283.231 430,282.968 430,282.7 Z"
           stroke="rgb(0,0,255)"
           stroke-width="0.2"
           id="path1304"
           style="fill:none;stroke:url(#linearGradient11290)" />
        <path
           d="m 17.4,284.1 c -0.268,0 -0.531,-0.077 -0.757,-0.222 -0.226,-0.145 -0.405,-0.352 -0.516,-0.596 -0.112,-0.245 -0.151,-0.516 -0.113,-0.781 0.038,-0.266 0.152,-0.515 0.328,-0.718 0.176,-0.203 0.406,-0.351 0.664,-0.426 0.257,-0.076 0.531,-0.076 0.788,0 0.258,0.075 0.488,0.223 0.664,0.426 0.176,0.203 0.29,0.452 0.328,0.718 0.038,0.265 -0.001,0.536 -0.113,0.781 -0.111,0.244 -0.29,0.451 -0.516,0.596 -0.226,0.145 -0.489,0.222 -0.757,0.222 z"
           stroke="rgb(0,0,255)"
           stroke-width="0.2"
           id="path1306"
           style="fill:none;stroke:url(#linearGradient11292)" />
        <path
           d="m 24.4,295.7 v -4.9 c 0,-0.1 -0.1,0 0,0 h 4.8 c 0.1,0 0,-0.1 0,0 v 9.8 c 0,0.1 0.1,0 0,0 h -4.8 c -0.1,0 0,0.1 0,0 z"
           stroke="rgb(0,0,255)"
           stroke-width="0.2"
           id="path1308"
           style="fill:none;stroke:url(#linearGradient11294)" />
        <path
           d="m 24.4,315.7 v -4.9 c 0,-0.1 -0.1,0 0,0 h 4.8 c 0.1,0 0,-0.1 0,0 v 9.8 c 0,0.1 0.1,0 0,0 h -4.8 c -0.1,0 0,0.1 0,0 z"
           stroke="rgb(0,0,255)"
           stroke-width="0.2"
           id="path1310"
           style="fill:none;stroke:url(#linearGradient11296)" />
        <path
           d="m 24.4,335.7 v -4.9 c 0,-0.1 -0.1,0 0,0 h 4.8 c 0.1,0 0,-0.1 0,0 v 9.8 c 0,0.1 0.1,0 0,0 h -4.8 c -0.1,0 0,0.1 0,0 z"
           stroke="rgb(0,0,255)"
           stroke-width="0.2"
           id="path1312"
           style="fill:none;stroke:url(#linearGradient11298)" />
        <path
           d="m 24.4,355.7 v -4.9 c 0,-0.1 -0.1,0 0,0 h 4.8 c 0.1,0 0,-0.1 0,0 v 9.8 c 0,0.1 0.1,0 0,0 h -4.8 c -0.1,0 0,0.1 0,0 z"
           stroke="rgb(0,0,255)"
           stroke-width="0.2"
           id="path1314"
           style="fill:none;stroke:url(#linearGradient11300)" />
        <path
           d="m 24.4,375.7 v -4.9 c 0,-0.1 -0.1,0 0,0 h 4.8 c 0.1,0 0,-0.1 0,0 v 9.8 c 0,0.1 0.1,0 0,0 h -4.8 c -0.1,0 0,0.1 0,0 z"
           stroke="rgb(0,0,255)"
           stroke-width="0.2"
           id="path1316"
           style="fill:none;stroke:url(#linearGradient11302)" />
        <path
           d="m 24.4,395.7 v -4.9 c 0,-0.1 -0.1,0 0,0 h 4.8 c 0.1,0 0,-0.1 0,0 v 9.8 c 0,0.1 0.1,0 0,0 h -4.8 c -0.1,0 0,0.1 0,0 z"
           stroke="rgb(0,0,255)"
           stroke-width="0.2"
           id="path1318"
           style="fill:none;stroke:url(#linearGradient11304)" />
        <path
           d="m 24.4,415.7 v -4.9 c 0,-0.1 -0.1,0 0,0 h 4.8 c 0.1,0 0,-0.1 0,0 v 9.8 c 0,0.1 0.1,0 0,0 h -4.8 c -0.1,0 0,0.1 0,0 z"
           stroke="rgb(0,0,255)"
           stroke-width="0.2"
           id="path1320"
           style="fill:none;stroke:url(#linearGradient11306)" />
        <path
           d="m 24.4,435.7 v -4.9 c 0,-0.1 -0.1,0 0,0 h 4.8 c 0.1,0 0,-0.1 0,0 v 9.8 c 0,0.1 0.1,0 0,0 h -4.8 c -0.1,0 0,0.1 0,0 z"
           stroke="rgb(0,0,255)"
           stroke-width="0.2"
           id="path1322"
           style="fill:none;stroke:url(#linearGradient11308)" />
        <path
           d="m 24.4,455.7 v -4.9 c 0,-0.1 -0.1,0 0,0 h 4.8 c 0.1,0 0,-0.1 0,0 v 9.8 c 0,0.1 0.1,0 0,0 h -4.8 c -0.1,0 0,0.1 0,0 z"
           stroke="rgb(0,0,255)"
           stroke-width="0.2"
           id="path1324"
           style="fill:none;stroke:url(#linearGradient11310)" />
        <path
           d="m 24.4,475.7 v -4.9 c 0,-0.1 -0.1,0 0,0 h 4.8 c 0.1,0 0,-0.1 0,0 v 9.8 c 0,0.1 0.1,0 0,0 h -4.8 c -0.1,0 0,0.1 0,0 z"
           stroke="rgb(0,0,255)"
           stroke-width="0.2"
           id="path1326"
           style="fill:none;stroke:url(#linearGradient11312)" />
      </g>
      <text
         xml:space="preserve"
         style="font-style:italic;font-size:9.87777px;font-family:sans-serif;-inkscape-font-specification:'sans-serif, Italic';direction:ltr;fill:none;stroke:#090000;stroke-width:1"
         x="202.38405"
         y="385.79294"
         id="text4914"><tspan
           sodipodi:role="line"
           id="tspan4912"
           style="stroke-width:1"
           x="202.38405"
           y="385.79294">Bottom</tspan></text>
    </g>
    <g
       id="g10222"
       transform="rotate(89.667797,735.20178,330.33094)">
      <g
         id="p-3"
         style="fill:none;stroke:url(#linearGradient3902);stroke-linecap:round;stroke-linejoin:round">
        <path
           d="m 438.1,508.3 h -4.9 c -0.1,0 0,0.1 0,0 v -4.8 c 0,-0.1 -0.1,0 0,0 h 9.8 c 0.1,0 0,-0.1 0,0 v 4.8 c 0,0.1 0.1,0 0,0 z"
           stroke="rgb(0,0,255)"
           stroke-width="0.2"
           id="path1258"
           style="fill:none;stroke:url(#linearGradient12998)" />
        <path
           d="m 608.1,503.5 h 4.9 c 0.1,0 0,-0.1 0,0 v 4.8 c 0,0.1 0.1,0 0,0 h -9.8 c -0.1,0 0,0.1 0,0 v -4.8 c 0,-0.1 -0.1,0 0,0 z"
           stroke="rgb(0,0,255)"
           stroke-width="0.2"
           id="path1260"
           style="fill:none;stroke:url(#linearGradient13000)" />
        <text
           transform="translate(523.1,556.5)"
           style="font-style:normal;font-weight:normal;font-family:sans-serif;fill:none;stroke:url(#linearGradient13002)"
           font-size="4px"
           text-anchor="middle"
           dominant-baseline="hanging"
           id="text1262" />
        <path
           d="m 418.1,613.5 h 9.9 c 0.1,0 0,-0.1 0,0 v 4.9 c 0,0.055 0.045,0.1 0.1,0.1 h 10 c 0.055,0 0.1,-0.045 0.1,-0.1 v -4.9 c 0,-0.1 -0.1,0 0,0 h 9.8 c 0.1,0 0,-0.1 0,0 v 4.9 c 0,0.055 0.045,0.1 0.1,0.1 h 10 c 0.055,0 0.1,-0.045 0.1,-0.1 v -4.9 c 0,-0.1 -0.1,0 0,0 h 9.8 c 0.1,0 0,-0.1 0,0 v 4.9 c 0,0.055 0.045,0.1 0.1,0.1 h 10 c 0.055,0 0.1,-0.045 0.1,-0.1 v -4.9 c 0,-0.1 -0.1,0 0,0 h 9.8 c 0.1,0 0,-0.1 0,0 v 4.9 c 0,0.055 0.045,0.1 0.1,0.1 h 10 c 0.055,0 0.1,-0.045 0.1,-0.1 v -4.9 c 0,-0.1 -0.1,0 0,0 h 9.8 c 0.1,0 0,-0.1 0,0 v 4.9 c 0,0.055 0.045,0.1 0.1,0.1 h 10 c 0.055,0 0.1,-0.045 0.1,-0.1 v -4.9 c 0,-0.1 -0.1,0 0,0 h 9.8 c 0.1,0 0,-0.1 0,0 v 4.9 c 0,0.055 0.045,0.1 0.1,0.1 h 10 c 0.055,0 0.1,-0.045 0.1,-0.1 v -4.9 c 0,-0.1 -0.1,0 0,0 h 9.8 c 0.1,0 0,-0.1 0,0 v 4.9 c 0,0.055 0.045,0.1 0.1,0.1 h 10 c 0.055,0 0.1,-0.045 0.1,-0.1 v -4.9 c 0,-0.1 -0.1,0 0,0 h 9.8 c 0.1,0 0,-0.1 0,0 v 4.9 c 0,0.055 0.045,0.1 0.1,0.1 h 10 c 0.055,0 0.1,-0.045 0.1,-0.1 v -4.9 c 0,-0.1 -0.1,0 0,0 h 9.8 c 0.1,0 0,-0.1 0,0 v 4.9 c 0,0.055 0.045,0.1 0.1,0.1 h 10 c 0.055,0 0.1,-0.045 0.1,-0.1 v -4.9 c 0,-0.1 -0.1,0 0,0 h 9.8 c 0.1,0 0,-0.1 0,0 v 4.9 c 0,0.055 0.045,0.1 0.1,0.1 h 10 c 0.055,0 0.1,-0.045 0.1,-0.1 v -4.9 c 0,-0.1 -0.1,0 0,0 h 9.9 c 0.055,0 0.1,-0.045 0.1,-0.1 V 601 c 0,-0.1 -0.1,0 0,0 h 4.9 c 0.055,0 0.1,-0.045 0.1,-0.1 v -10 c 0,-0.055 -0.045,-0.1 -0.1,-0.1 h -4.9 c -0.1,0 0,0.1 0,0 V 581 c 0,-0.1 -0.1,0 0,0 h 4.9 c 0.055,0 0.1,-0.045 0.1,-0.1 v -10 c 0,-0.055 -0.045,-0.1 -0.1,-0.1 h -4.9 c -0.1,0 0,0.1 0,0 V 561 c 0,-0.1 -0.1,0 0,0 h 4.9 c 0.055,0 0.1,-0.045 0.1,-0.1 v -10 c 0,-0.055 -0.045,-0.1 -0.1,-0.1 h -4.9 c -0.1,0 0,0.1 0,0 V 541 c 0,-0.1 -0.1,0 0,0 h 4.9 c 0.055,0 0.1,-0.045 0.1,-0.1 v -10 c 0,-0.055 -0.045,-0.1 -0.1,-0.1 h -4.9 c -0.1,0 0,0.1 0,0 V 521 c 0,-0.1 -0.1,0 0,0 h 4.9 c 0.055,0 0.1,-0.045 0.1,-0.1 v -10 c 0,-0.055 -0.045,-0.1 -0.1,-0.1 h -4.9 c -0.1,0 0,0.1 0,0 v -12.4 c 0,-0.055 -0.045,-0.1 -0.1,-0.1 h -210 c -0.055,0 -0.1,0.045 -0.1,0.1 v 12.4 c 0,0.1 0.1,0 0,0 h -4.9 c -0.055,0 -0.1,0.045 -0.1,0.1 v 10 c 0,0.055 0.045,0.1 0.1,0.1 h 4.9 c 0.1,0 0,-0.1 0,0 v 9.8 c 0,0.1 0.1,0 0,0 h -4.9 c -0.055,0 -0.1,0.045 -0.1,0.1 v 10 c 0,0.055 0.045,0.1 0.1,0.1 h 4.9 c 0.1,0 0,-0.1 0,0 v 9.8 c 0,0.1 0.1,0 0,0 h -4.9 c -0.055,0 -0.1,0.045 -0.1,0.1 v 10 c 0,0.055 0.045,0.1 0.1,0.1 h 4.9 c 0.1,0 0,-0.1 0,0 v 9.8 c 0,0.1 0.1,0 0,0 h -4.9 c -0.055,0 -0.1,0.045 -0.1,0.1 v 10 c 0,0.055 0.045,0.1 0.1,0.1 h 4.9 c 0.1,0 0,-0.1 0,0 v 9.8 c 0,0.1 0.1,0 0,0 h -4.9 c -0.055,0 -0.1,0.045 -0.1,0.1 v 10 c 0,0.055 0.045,0.1 0.1,0.1 h 4.9 c 0.1,0 0,-0.1 0,0 v 12.4 c 0,0.055 0.045,0.1 0.1,0.1"
           stroke="rgb(0,0,0)"
           stroke-width="0.2"
           id="path1264"
           style="fill:none;stroke:url(#linearGradient13004)" />
      </g>
      <text
         xml:space="preserve"
         style="font-style:italic;font-size:9.87777px;font-family:sans-serif;-inkscape-font-specification:'sans-serif, Italic';direction:ltr;fill:none;stroke:#090000;stroke-width:1"
         x="508.36426"
         y="560.91296"
         id="text4926"><tspan
           sodipodi:role="line"
           id="tspan4924"
           style="stroke-width:1"
           x="508.36426"
           y="560.91296">Wall 4</tspan></text>
    </g>
    <g
       id="p-7"
       style="fill:none;stroke:url(#linearGradient3912);stroke-linecap:round;stroke-linejoin:round"
       transform="translate(27.515544,231.59661)">
      <path
         d="m 23.037,55.4 h 14.9 c 0.1,0 0,-0.1 0,0 v 4.9 c 0,0.055 0.045,0.1 0.1,0.1 h 10 c 0.055,0 0.1,-0.045 0.1,-0.1 v -4.9 c 0,-0.1 -0.1,0 0,0 h 14.9 c 0.055,0 0.1,-0.045 0.1,-0.1 V 40.4 c 0,-0.1 -0.1,0 0,0 h 4.9 c 0.055,0 0.1,-0.045 0.1,-0.1 v -10 c 0,-0.055 -0.045,-0.1 -0.1,-0.1 h -4.9 c -0.1,0 0,0.1 0,0 V 15.3 c 0,-0.055 -0.045,-0.1 -0.1,-0.1 -0.027,0 -0.052,0.011 -0.071,0.029 l -40,40 c -0.019,0.019 -0.029,0.044 -0.029,0.071 0,0.055 0.045,0.1 0.1,0.1 z"
         stroke="rgb(0,0,0)"
         stroke-width="0.2"
         id="path1342"
         style="fill:none;stroke:url(#linearGradient13205)" />
      <path
         d="m 49.703,41.067 c 0.173,0 0.342,0.049 0.487,0.143 0.145,0.093 0.26,0.226 0.332,0.383 0.072,0.157 0.097,0.331 0.072,0.502 -0.024,0.171 -0.097,0.331 -0.21,0.461 -0.113,0.13 -0.261,0.226 -0.427,0.274 -0.166,0.049 -0.342,0.049 -0.507,0 -0.166,-0.048 -0.314,-0.144 -0.427,-0.274 -0.113,-0.13 -0.186,-0.29 -0.21,-0.461 -0.025,-0.171 0,-0.345 0.072,-0.502 0.071,-0.157 0.187,-0.29 0.332,-0.383 0.145,-0.094 0.314,-0.143 0.486,-0.143 z"
         stroke="rgb(0,0,255)"
         stroke-width="0.2"
         id="path1344"
         style="fill:none;stroke:url(#linearGradient13207)" />
      <path
         d="M 55.4,15 H 40.5 c -0.1,0 0,0.1 0,0 V 10.1 C 40.5,10.045 40.455,10 40.4,10 h -10 c -0.055,0 -0.1,0.045 -0.1,0.1 V 15 c 0,0.1 0.1,0 0,0 H 15.4 c -0.055,0 -0.1,0.045 -0.1,0.1 V 30 c 0,0.1 0.1,0 0,0 h -4.9 c -0.055,0 -0.1,0.045 -0.1,0.1 v 10 c 0,0.055 0.045,0.1 0.1,0.1 h 4.9 c 0.1,0 0,-0.1 0,0 v 14.9 c 0,0.055 0.045,0.1 0.1,0.1 0.027,0 0.052,-0.011 0.071,-0.029 l 40,-40 C 55.489,15.152 55.5,15.127 55.5,15.1 55.5,15.045 55.455,15 55.4,15 Z"
         stroke="rgb(0,0,0)"
         stroke-width="0.2"
         id="path1346"
         style="fill:none;stroke:url(#linearGradient13209)" />
      <path
         d="m 28.733,29.333 c -0.172,0 -0.341,-0.049 -0.486,-0.143 -0.145,-0.093 -0.261,-0.226 -0.332,-0.383 -0.072,-0.157 -0.097,-0.331 -0.073,-0.502 0.025,-0.171 0.098,-0.331 0.211,-0.461 0.113,-0.13 0.261,-0.226 0.427,-0.274 0.165,-0.049 0.341,-0.049 0.507,0 0.165,0.048 0.314,0.144 0.427,0.274 0.112,0.13 0.186,0.29 0.21,0.461 0.025,0.171 0,0.345 -0.072,0.502 -0.072,0.157 -0.187,0.29 -0.332,0.383 -0.145,0.094 -0.314,0.143 -0.487,0.143 z"
         stroke="rgb(0,0,255)"
         stroke-width="0.2"
         id="path1348"
         style="fill:none;stroke:url(#linearGradient13211)" />
      <path
         d="m 83.374,55.4 h 14.9 c 0.1,0 0,-0.1 0,0 v 4.9 c 0,0.055 0.044,0.1 0.1,0.1 h 10 c 0.055,0 0.1,-0.045 0.1,-0.1 v -4.9 c 0,-0.1 -0.1,0 0,0 h 14.9 c 0.055,0 0.1,-0.045 0.1,-0.1 V 40.4 c 0,-0.1 -0.1,0 0,0 h 4.9 c 0.055,0 0.1,-0.045 0.1,-0.1 v -10 c 0,-0.055 -0.045,-0.1 -0.1,-0.1 h -4.9 c -0.1,0 0,0.1 0,0 V 15.3 c 0,-0.055 -0.045,-0.1 -0.1,-0.1 -0.027,0 -0.052,0.011 -0.071,0.029 l -40,40 c -0.019,0.019 -0.029,0.044 -0.029,0.071 0,0.055 0.044,0.1 0.1,0.1 z"
         stroke="rgb(0,0,0)"
         stroke-width="0.2"
         id="path1350"
         style="fill:none;stroke:url(#linearGradient13213)" />
      <path
         d="m 110.04,41.067 c 0.173,0 0.342,0.049 0.487,0.143 0.145,0.093 0.26,0.226 0.332,0.383 0.072,0.157 0.097,0.331 0.072,0.502 -0.025,0.171 -0.098,0.331 -0.211,0.461 -0.113,0.13 -0.261,0.226 -0.426,0.274 -0.166,0.049 -0.342,0.049 -0.507,0 -0.166,-0.048 -0.314,-0.144 -0.427,-0.274 -0.113,-0.13 -0.186,-0.29 -0.211,-0.461 -0.024,-0.171 0.001,-0.345 0.073,-0.502 0.071,-0.157 0.186,-0.29 0.332,-0.383 0.145,-0.094 0.314,-0.143 0.486,-0.143 z"
         stroke="rgb(0,0,255)"
         stroke-width="0.2"
         id="path1352"
         style="fill:none;stroke:url(#linearGradient13215)" />
      <path
         d="m 115.737,15 h -14.9 c -0.1,0 0,0.1 0,0 v -4.9 c 0,-0.055 -0.045,-0.1 -0.1,-0.1 h -10 c -0.055,0 -0.1,0.045 -0.1,0.1 V 15 c 0,0.1 0.1,0 0,0 h -14.9 c -0.055,0 -0.1,0.045 -0.1,0.1 V 30 c 0,0.1 0.1,0 0,0 h -4.9 c -0.055,0 -0.1,0.045 -0.1,0.1 v 10 c 0,0.055 0.045,0.1 0.1,0.1 h 4.9 c 0.1,0 0,-0.1 0,0 v 14.9 c 0,0.055 0.045,0.1 0.1,0.1 0.026,0 0.052,-0.011 0.07,-0.029 l 40,-40 c 0.019,-0.019 0.03,-0.044 0.03,-0.071 0,-0.055 -0.045,-0.1 -0.1,-0.1 z"
         stroke="rgb(0,0,0)"
         stroke-width="0.2"
         id="path1354"
         style="fill:none;stroke:url(#linearGradient13217)" />
      <path
         d="m 89.07,29.333 c -0.172,0 -0.341,-0.049 -0.486,-0.143 -0.146,-0.093 -0.261,-0.226 -0.333,-0.383 -0.071,-0.157 -0.096,-0.331 -0.072,-0.502 0.025,-0.171 0.098,-0.331 0.211,-0.461 0.113,-0.13 0.261,-0.226 0.427,-0.274 0.165,-0.049 0.341,-0.049 0.507,0 0.165,0.048 0.313,0.144 0.426,0.274 0.113,0.13 0.186,0.29 0.211,0.461 0.024,0.171 -0.001,0.345 -0.072,0.502 -0.072,0.157 -0.187,0.29 -0.332,0.383 -0.145,0.094 -0.314,0.143 -0.487,0.143 z"
         stroke="rgb(0,0,255)"
         stroke-width="0.2"
         id="path1356"
         style="fill:none;stroke:url(#linearGradient13219)" />
    </g>
  </g>
</svg>
