<?xml version="1.0" encoding="UTF-8" standalone="no"?>
<!-- Created with Inkscape (http://www.inkscape.org/) -->

<svg
   width="600mm"
   height="300mm"
   viewBox="0 0 600 300"
   version="1.1"
   id="svg13544"
   inkscape:version="1.2.1 (9c6d41e4, 2022-07-14)"
   sodipodi:docname="ElectronicsBox3.svg"
   xmlns:inkscape="http://www.inkscape.org/namespaces/inkscape"
   xmlns:sodipodi="http://sodipodi.sourceforge.net/DTD/sodipodi-0.dtd"
   xmlns:xlink="http://www.w3.org/1999/xlink"
   xmlns="http://www.w3.org/2000/svg"
   xmlns:svg="http://www.w3.org/2000/svg">
  <sodipodi:namedview
     id="namedview13546"
     pagecolor="#ffffff"
     bordercolor="#000000"
     borderopacity="0.25"
     inkscape:showpageshadow="2"
     inkscape:pageopacity="0.0"
     inkscape:pagecheckerboard="0"
     inkscape:deskcolor="#d1d1d1"
     inkscape:document-units="mm"
     showgrid="false"
     inkscape:zoom="0.2102413"
     inkscape:cx="392.40625"
     inkscape:cy="561.25984"
     inkscape:window-width="1280"
     inkscape:window-height="456"
     inkscape:window-x="0"
     inkscape:window-y="23"
     inkscape:window-maximized="0"
     inkscape:current-layer="layer1" />
  <defs
     id="defs13541">
    <linearGradient
       inkscape:collect="always"
       xlink:href="#linearGradient3898"
       id="linearGradient3900"
       x1="10.2"
       y1="558.40002"
       x2="410.60001"
       y2="558.40002"
       gradientUnits="userSpaceOnUse" />
    <linearGradient
       id="linearGradient3898"
       inkscape:swatch="solid">
      <stop
         style="stop-color:#ff0000;stop-opacity:1;"
         offset="0"
         id="stop3896" />
    </linearGradient>
    <linearGradient
       inkscape:collect="always"
       xlink:href="#linearGradient3898"
       id="linearGradient14094"
       gradientUnits="userSpaceOnUse"
       x1="10.2"
       y1="558.40002"
       x2="410.60001"
       y2="558.40002" />
    <linearGradient
       inkscape:collect="always"
       xlink:href="#linearGradient3898"
       id="linearGradient14096"
       gradientUnits="userSpaceOnUse"
       x1="10.2"
       y1="558.40002"
       x2="410.60001"
       y2="558.40002" />
    <linearGradient
       inkscape:collect="always"
       xlink:href="#linearGradient3898"
       id="linearGradient14098"
       gradientUnits="userSpaceOnUse"
       x1="10.2"
       y1="558.40002"
       x2="410.60001"
       y2="558.40002" />
    <linearGradient
       inkscape:collect="always"
       xlink:href="#linearGradient3898"
       id="linearGradient14100"
       gradientUnits="userSpaceOnUse"
       x1="10.2"
       y1="558.40002"
       x2="410.60001"
       y2="558.40002" />
    <linearGradient
       inkscape:collect="always"
       xlink:href="#linearGradient3898"
       id="linearGradient3906"
       x1="10.2"
       y1="681.09998"
       x2="410.60001"
       y2="681.09998"
       gradientUnits="userSpaceOnUse" />
    <linearGradient
       inkscape:collect="always"
       xlink:href="#linearGradient4900"
       id="linearGradient4902"
       x1="-5.7705078"
       y1="1.0301993"
       x2="5.5244141"
       y2="1.0301993"
       gradientUnits="userSpaceOnUse" />
    <linearGradient
       id="linearGradient4900"
       inkscape:swatch="solid">
      <stop
         style="stop-color:#000000;stop-opacity:1;"
         offset="0"
         id="stop4898" />
    </linearGradient>
    <linearGradient
       inkscape:collect="always"
       xlink:href="#linearGradient3898"
       id="linearGradient14951"
       gradientUnits="userSpaceOnUse"
       x1="10.2"
       y1="681.09998"
       x2="410.60001"
       y2="681.09998" />
    <linearGradient
       inkscape:collect="always"
       xlink:href="#linearGradient3898"
       id="linearGradient14953"
       gradientUnits="userSpaceOnUse"
       x1="10.2"
       y1="681.09998"
       x2="410.60001"
       y2="681.09998" />
    <linearGradient
       inkscape:collect="always"
       xlink:href="#linearGradient3898"
       id="linearGradient14955"
       gradientUnits="userSpaceOnUse"
       x1="10.2"
       y1="681.09998"
       x2="410.60001"
       y2="681.09998" />
    <linearGradient
       inkscape:collect="always"
       xlink:href="#linearGradient3898"
       id="linearGradient14957"
       gradientUnits="userSpaceOnUse"
       x1="10.2"
       y1="681.09998"
       x2="410.60001"
       y2="681.09998" />
  </defs>
  <g
     inkscape:label="Calque 1"
     inkscape:groupmode="layer"
     id="layer1">
    <g
       id="g10195"
       transform="translate(37.519489,-330.6161)">
      <g
         id="p-4"
         style="fill:none;stroke:url(#linearGradient3900);stroke-linecap:round;stroke-linejoin:round">
        <path
           d="m 35.4,508.3 h -4.9 c -0.1,0 0,0.1 0,0 v -4.8 c 0,-0.1 -0.1,0 0,0 h 9.8 c 0.1,0 0,-0.1 0,0 v 4.8 c 0,0.1 0.1,0 0,0 z"
           stroke="#0000ff"
           stroke-width="0.2"
           id="path1267"
           style="fill:none;stroke:url(#linearGradient14094)" />
        <path
           d="m 385.4,503.5 h 4.9 c 0.1,0 0,-0.1 0,0 v 4.8 c 0,0.1 0.1,0 0,0 h -9.8 c -0.1,0 0,0.1 0,0 v -4.8 c 0,-0.1 -0.1,0 0,0 z"
           stroke="#0000ff"
           stroke-width="0.2"
           id="path1269"
           style="fill:none;stroke:url(#linearGradient14096)" />
        <text
           transform="translate(210.4,556.5)"
           style="font-style:normal;font-weight:normal;font-family:sans-serif;fill:none;stroke:url(#linearGradient14098)"
           font-size="4px"
           text-anchor="middle"
           dominant-baseline="hanging"
           id="text1271" />
        <path
           d="m 15.4,613.5 h 9.9 c 0.1,0 0,-0.1 0,0 v 4.9 c 0,0.055 0.045,0.1 0.1,0.1 h 10 c 0.055,0 0.1,-0.045 0.1,-0.1 v -4.9 c 0,-0.1 -0.1,0 0,0 h 9.8 c 0.1,0 0,-0.1 0,0 v 4.9 c 0,0.055 0.045,0.1 0.1,0.1 h 10 c 0.055,0 0.1,-0.045 0.1,-0.1 v -4.9 c 0,-0.1 -0.1,0 0,0 h 9.8 c 0.1,0 0,-0.1 0,0 v 4.9 c 0,0.055 0.045,0.1 0.1,0.1 h 10 c 0.055,0 0.1,-0.045 0.1,-0.1 v -4.9 c 0,-0.1 -0.1,0 0,0 h 9.8 c 0.1,0 0,-0.1 0,0 v 4.9 c 0,0.055 0.045,0.1 0.1,0.1 h 10 c 0.055,0 0.1,-0.045 0.1,-0.1 v -4.9 c 0,-0.1 -0.1,0 0,0 h 9.8 c 0.1,0 0,-0.1 0,0 v 4.9 c 0,0.055 0.045,0.1 0.1,0.1 h 10 c 0.055,0 0.1,-0.045 0.1,-0.1 v -4.9 c 0,-0.1 -0.1,0 0,0 h 9.8 c 0.1,0 0,-0.1 0,0 v 4.9 c 0,0.055 0.045,0.1 0.1,0.1 h 10 c 0.055,0 0.1,-0.045 0.1,-0.1 v -4.9 c 0,-0.1 -0.1,0 0,0 h 9.8 c 0.1,0 0,-0.1 0,0 v 4.9 c 0,0.055 0.045,0.1 0.1,0.1 h 10 c 0.055,0 0.1,-0.045 0.1,-0.1 v -4.9 c 0,-0.1 -0.1,0 0,0 h 9.8 c 0.1,0 0,-0.1 0,0 v 4.9 c 0,0.055 0.045,0.1 0.1,0.1 h 10 c 0.055,0 0.1,-0.045 0.1,-0.1 v -4.9 c 0,-0.1 -0.1,0 0,0 h 9.8 c 0.1,0 0,-0.1 0,0 v 4.9 c 0,0.055 0.045,0.1 0.1,0.1 h 10 c 0.055,0 0.1,-0.045 0.1,-0.1 v -4.9 c 0,-0.1 -0.1,0 0,0 h 9.8 c 0.1,0 0,-0.1 0,0 v 4.9 c 0,0.055 0.045,0.1 0.1,0.1 h 10 c 0.055,0 0.1,-0.045 0.1,-0.1 v -4.9 c 0,-0.1 -0.1,0 0,0 h 9.8 c 0.1,0 0,-0.1 0,0 v 4.9 c 0,0.055 0.045,0.1 0.1,0.1 h 10 c 0.055,0 0.1,-0.045 0.1,-0.1 v -4.9 c 0,-0.1 -0.1,0 0,0 h 9.8 c 0.1,0 0,-0.1 0,0 v 4.9 c 0,0.055 0.045,0.1 0.1,0.1 h 10 c 0.055,0 0.1,-0.045 0.1,-0.1 v -4.9 c 0,-0.1 -0.1,0 0,0 h 9.8 c 0.1,0 0,-0.1 0,0 v 4.9 c 0,0.055 0.045,0.1 0.1,0.1 h 10 c 0.055,0 0.1,-0.045 0.1,-0.1 v -4.9 c 0,-0.1 -0.1,0 0,0 h 9.8 c 0.1,0 0,-0.1 0,0 v 4.9 c 0,0.055 0.045,0.1 0.1,0.1 h 10 c 0.055,0 0.1,-0.045 0.1,-0.1 v -4.9 c 0,-0.1 -0.1,0 0,0 h 9.8 c 0.1,0 0,-0.1 0,0 v 4.9 c 0,0.055 0.045,0.1 0.1,0.1 h 10 c 0.055,0 0.1,-0.045 0.1,-0.1 v -4.9 c 0,-0.1 -0.1,0 0,0 h 9.8 c 0.1,0 0,-0.1 0,0 v 4.9 c 0,0.055 0.045,0.1 0.1,0.1 h 10 c 0.055,0 0.1,-0.045 0.1,-0.1 v -4.9 c 0,-0.1 -0.1,0 0,0 h 9.8 c 0.1,0 0,-0.1 0,0 v 4.9 c 0,0.055 0.045,0.1 0.1,0.1 h 10 c 0.055,0 0.1,-0.045 0.1,-0.1 v -4.9 c 0,-0.1 -0.1,0 0,0 h 9.8 c 0.1,0 0,-0.1 0,0 v 4.9 c 0,0.055 0.045,0.1 0.1,0.1 h 10 c 0.055,0 0.1,-0.045 0.1,-0.1 v -4.9 c 0,-0.1 -0.1,0 0,0 h 9.8 c 0.1,0 0,-0.1 0,0 v 4.9 c 0,0.055 0.045,0.1 0.1,0.1 h 10 c 0.055,0 0.1,-0.045 0.1,-0.1 v -4.9 c 0,-0.1 -0.1,0 0,0 h 9.9 5 c 0.055,0 0.1,-0.045 0.1,-0.1 v -12.5 c 0,-0.055 -0.045,-0.1 -0.1,-0.1 h -4.9 c -0.1,0 0,0.1 0,0 V 591 c 0,-0.1 -0.1,0 0,0 h 4.9 c 0.055,0 0.1,-0.045 0.1,-0.1 v -10 c 0,-0.055 -0.045,-0.1 -0.1,-0.1 h -4.9 c -0.1,0 0,0.1 0,0 V 571 c 0,-0.1 -0.1,0 0,0 h 4.9 c 0.055,0 0.1,-0.045 0.1,-0.1 v -10 c 0,-0.055 -0.045,-0.1 -0.1,-0.1 h -4.9 c -0.1,0 0,0.1 0,0 V 551 c 0,-0.1 -0.1,0 0,0 h 4.9 c 0.055,0 0.1,-0.045 0.1,-0.1 v -10 c 0,-0.055 -0.045,-0.1 -0.1,-0.1 h -4.9 c -0.1,0 0,0.1 0,0 V 531 c 0,-0.1 -0.1,0 0,0 h 4.9 c 0.055,0 0.1,-0.045 0.1,-0.1 v -10 c 0,-0.055 -0.045,-0.1 -0.1,-0.1 h -4.9 c -0.1,0 0,0.1 0,0 V 511 c 0,-0.1 -0.1,0 0,0 h 4.9 c 0.055,0 0.1,-0.045 0.1,-0.1 v -12.5 c 0,-0.055 -0.045,-0.1 -0.1,-0.1 h -5 -390 -5 c -0.055,0 -0.1,0.045 -0.1,0.1 v 12.5 c 0,0.055 0.045,0.1 0.1,0.1 h 4.9 c 0.1,0 0,-0.1 0,0 v 9.8 c 0,0.1 0.1,0 0,0 h -4.9 c -0.055,0 -0.1,0.045 -0.1,0.1 v 10 c 0,0.055 0.045,0.1 0.1,0.1 h 4.9 c 0.1,0 0,-0.1 0,0 v 9.8 c 0,0.1 0.1,0 0,0 h -4.9 c -0.055,0 -0.1,0.045 -0.1,0.1 v 10 c 0,0.055 0.045,0.1 0.1,0.1 h 4.9 c 0.1,0 0,-0.1 0,0 v 9.8 c 0,0.1 0.1,0 0,0 h -4.9 c -0.055,0 -0.1,0.045 -0.1,0.1 v 10 c 0,0.055 0.045,0.1 0.1,0.1 h 4.9 c 0.1,0 0,-0.1 0,0 v 9.8 c 0,0.1 0.1,0 0,0 h -4.9 c -0.055,0 -0.1,0.045 -0.1,0.1 v 10 c 0,0.055 0.045,0.1 0.1,0.1 h 4.9 c 0.1,0 0,-0.1 0,0 v 9.8 c 0,0.1 0.1,0 0,0 h -4.9 c -0.055,0 -0.1,0.045 -0.1,0.1 v 12.5 c 0,0.055 0.045,0.1 0.1,0.1 h 5"
           stroke="#000000"
           stroke-width="0.2"
           id="path1273"
           style="fill:none;stroke:url(#linearGradient14100)" />
      </g>
      <text
         xml:space="preserve"
         style="font-style:italic;font-size:9.87777px;font-family:sans-serif;-inkscape-font-specification:'sans-serif, Italic';direction:ltr;fill:none;stroke:#090000;stroke-width:1"
         x="191.21738"
         y="553.71466"
         id="text4910"><tspan
           sodipodi:role="line"
           id="tspan4908"
           style="stroke-width:1"
           x="191.21738"
           y="553.71466">Wall 3</tspan></text>
    </g>
    <g
       id="g10204"
       transform="translate(31.227119,-594.26525)">
      <g
         id="p-1"
         style="fill:none;stroke:url(#linearGradient3906);stroke-linecap:round;stroke-linejoin:round">
        <path
           d="m 35.4,631 h -4.9 c -0.1,0 0,0.1 0,0 v -4.8 c 0,-0.1 -0.1,0 0,0 h 9.8 c 0.1,0 0,-0.1 0,0 v 4.8 c 0,0.1 0.1,0 0,0 z"
           stroke="rgb(0,0,255)"
           stroke-width="0.2"
           id="path1240"
           style="fill:none;stroke:url(#linearGradient14951)" />
        <path
           d="m 385.4,626.2 h 4.9 c 0.1,0 0,-0.1 0,0 v 4.8 c 0,0.1 0.1,0 0,0 h -9.8 c -0.1,0 0,0.1 0,0 v -4.8 c 0,-0.1 -0.1,0 0,0 z"
           stroke="rgb(0,0,255)"
           stroke-width="0.2"
           id="path1242"
           style="fill:none;stroke:url(#linearGradient14953)" />
        <text
           transform="translate(210.4,679.2)"
           style="font-style:normal;font-weight:normal;font-family:sans-serif;direction:ltr;fill:url(#linearGradient4902);fill-opacity:1;stroke:url(#linearGradient14955)"
           font-size="4px"
           text-anchor="middle"
           dominant-baseline="hanging"
           id="text1244" />
        <path
           d="m 15.4,736.2 h 9.9 c 0.1,0 0,-0.1 0,0 v 4.9 c 0,0.055 0.045,0.1 0.1,0.1 h 10 c 0.055,0 0.1,-0.045 0.1,-0.1 v -4.9 c 0,-0.1 -0.1,0 0,0 h 9.8 c 0.1,0 0,-0.1 0,0 v 4.9 c 0,0.055 0.045,0.1 0.1,0.1 h 10 c 0.055,0 0.1,-0.045 0.1,-0.1 v -4.9 c 0,-0.1 -0.1,0 0,0 h 9.8 c 0.1,0 0,-0.1 0,0 v 4.9 c 0,0.055 0.045,0.1 0.1,0.1 h 10 c 0.055,0 0.1,-0.045 0.1,-0.1 v -4.9 c 0,-0.1 -0.1,0 0,0 h 9.8 c 0.1,0 0,-0.1 0,0 v 4.9 c 0,0.055 0.045,0.1 0.1,0.1 h 10 c 0.055,0 0.1,-0.045 0.1,-0.1 v -4.9 c 0,-0.1 -0.1,0 0,0 h 9.8 c 0.1,0 0,-0.1 0,0 v 4.9 c 0,0.055 0.045,0.1 0.1,0.1 h 10 c 0.055,0 0.1,-0.045 0.1,-0.1 v -4.9 c 0,-0.1 -0.1,0 0,0 h 9.8 c 0.1,0 0,-0.1 0,0 v 4.9 c 0,0.055 0.045,0.1 0.1,0.1 h 10 c 0.055,0 0.1,-0.045 0.1,-0.1 v -4.9 c 0,-0.1 -0.1,0 0,0 h 9.8 c 0.1,0 0,-0.1 0,0 v 4.9 c 0,0.055 0.045,0.1 0.1,0.1 h 10 c 0.055,0 0.1,-0.045 0.1,-0.1 v -4.9 c 0,-0.1 -0.1,0 0,0 h 9.8 c 0.1,0 0,-0.1 0,0 v 4.9 c 0,0.055 0.045,0.1 0.1,0.1 h 10 c 0.055,0 0.1,-0.045 0.1,-0.1 v -4.9 c 0,-0.1 -0.1,0 0,0 h 9.8 c 0.1,0 0,-0.1 0,0 v 4.9 c 0,0.055 0.045,0.1 0.1,0.1 h 10 c 0.055,0 0.1,-0.045 0.1,-0.1 v -4.9 c 0,-0.1 -0.1,0 0,0 h 9.8 c 0.1,0 0,-0.1 0,0 v 4.9 c 0,0.055 0.045,0.1 0.1,0.1 h 10 c 0.055,0 0.1,-0.045 0.1,-0.1 v -4.9 c 0,-0.1 -0.1,0 0,0 h 9.8 c 0.1,0 0,-0.1 0,0 v 4.9 c 0,0.055 0.045,0.1 0.1,0.1 h 10 c 0.055,0 0.1,-0.045 0.1,-0.1 v -4.9 c 0,-0.1 -0.1,0 0,0 h 9.8 c 0.1,0 0,-0.1 0,0 v 4.9 c 0,0.055 0.045,0.1 0.1,0.1 h 10 c 0.055,0 0.1,-0.045 0.1,-0.1 v -4.9 c 0,-0.1 -0.1,0 0,0 h 9.8 c 0.1,0 0,-0.1 0,0 v 4.9 c 0,0.055 0.045,0.1 0.1,0.1 h 10 c 0.055,0 0.1,-0.045 0.1,-0.1 v -4.9 c 0,-0.1 -0.1,0 0,0 h 9.8 c 0.1,0 0,-0.1 0,0 v 4.9 c 0,0.055 0.045,0.1 0.1,0.1 h 10 c 0.055,0 0.1,-0.045 0.1,-0.1 v -4.9 c 0,-0.1 -0.1,0 0,0 h 9.8 c 0.1,0 0,-0.1 0,0 v 4.9 c 0,0.055 0.045,0.1 0.1,0.1 h 10 c 0.055,0 0.1,-0.045 0.1,-0.1 v -4.9 c 0,-0.1 -0.1,0 0,0 h 9.8 c 0.1,0 0,-0.1 0,0 v 4.9 c 0,0.055 0.045,0.1 0.1,0.1 h 10 c 0.055,0 0.1,-0.045 0.1,-0.1 v -4.9 c 0,-0.1 -0.1,0 0,0 h 9.8 c 0.1,0 0,-0.1 0,0 v 4.9 c 0,0.055 0.045,0.1 0.1,0.1 h 10 c 0.055,0 0.1,-0.045 0.1,-0.1 v -4.9 c 0,-0.1 -0.1,0 0,0 h 9.8 c 0.1,0 0,-0.1 0,0 v 4.9 c 0,0.055 0.045,0.1 0.1,0.1 h 10 c 0.055,0 0.1,-0.045 0.1,-0.1 v -4.9 c 0,-0.1 -0.1,0 0,0 h 9.8 c 0.1,0 0,-0.1 0,0 v 4.9 c 0,0.055 0.045,0.1 0.1,0.1 h 10 c 0.055,0 0.1,-0.045 0.1,-0.1 v -4.9 c 0,-0.1 -0.1,0 0,0 h 9.9 5 c 0.055,0 0.1,-0.045 0.1,-0.1 v -12.5 c 0,-0.055 -0.045,-0.1 -0.1,-0.1 h -4.9 c -0.1,0 0,0.1 0,0 v -9.8 c 0,-0.1 -0.1,0 0,0 h 4.9 c 0.055,0 0.1,-0.045 0.1,-0.1 v -10 c 0,-0.055 -0.045,-0.1 -0.1,-0.1 h -4.9 c -0.1,0 0,0.1 0,0 v -9.8 c 0,-0.1 -0.1,0 0,0 h 4.9 c 0.055,0 0.1,-0.045 0.1,-0.1 v -10 c 0,-0.055 -0.045,-0.1 -0.1,-0.1 h -4.9 c -0.1,0 0,0.1 0,0 v -9.8 c 0,-0.1 -0.1,0 0,0 h 4.9 c 0.055,0 0.1,-0.045 0.1,-0.1 v -10 c 0,-0.055 -0.045,-0.1 -0.1,-0.1 h -4.9 c -0.1,0 0,0.1 0,0 v -9.8 c 0,-0.1 -0.1,0 0,0 h 4.9 c 0.055,0 0.1,-0.045 0.1,-0.1 v -10 c 0,-0.055 -0.045,-0.1 -0.1,-0.1 h -4.9 c -0.1,0 0,0.1 0,0 v -9.8 c 0,-0.1 -0.1,0 0,0 h 4.9 c 0.055,0 0.1,-0.045 0.1,-0.1 v -12.5 c 0,-0.055 -0.045,-0.1 -0.1,-0.1 h -5 -390 -5 c -0.055,0 -0.1,0.045 -0.1,0.1 v 12.5 c 0,0.055 0.045,0.1 0.1,0.1 h 4.9 c 0.1,0 0,-0.1 0,0 v 9.8 c 0,0.1 0.1,0 0,0 h -4.9 c -0.055,0 -0.1,0.045 -0.1,0.1 v 10 c 0,0.055 0.045,0.1 0.1,0.1 h 4.9 c 0.1,0 0,-0.1 0,0 v 9.8 c 0,0.1 0.1,0 0,0 h -4.9 c -0.055,0 -0.1,0.045 -0.1,0.1 v 10 c 0,0.055 0.045,0.1 0.1,0.1 h 4.9 c 0.1,0 0,-0.1 0,0 v 9.8 c 0,0.1 0.1,0 0,0 h -4.9 c -0.055,0 -0.1,0.045 -0.1,0.1 v 10 c 0,0.055 0.045,0.1 0.1,0.1 h 4.9 c 0.1,0 0,-0.1 0,0 v 9.8 c 0,0.1 0.1,0 0,0 h -4.9 c -0.055,0 -0.1,0.045 -0.1,0.1 v 10 c 0,0.055 0.045,0.1 0.1,0.1 h 4.9 c 0.1,0 0,-0.1 0,0 v 9.8 c 0,0.1 0.1,0 0,0 h -4.9 c -0.055,0 -0.1,0.045 -0.1,0.1 v 12.5 c 0,0.055 0.045,0.1 0.1,0.1 h 5"
           stroke="rgb(0,0,0)"
           stroke-width="0.2"
           id="path1246"
           style="fill:none;stroke:url(#linearGradient14957)" />
      </g>
      <text
         xml:space="preserve"
         style="font-style:italic;font-size:9.87777px;font-family:sans-serif;-inkscape-font-specification:'sans-serif, Italic';direction:ltr;fill:none;stroke:#090000;stroke-width:1"
         x="183.03731"
         y="681.39026"
         id="text4906"><tspan
           sodipodi:role="line"
           id="tspan4904"
           style="stroke-width:1"
           x="183.03731"
           y="681.39026">Wall 1</tspan></text>
    </g>
  </g>
</svg>
